<?xml version="1.0" standalone="no"?>
<!DOCTYPE svg PUBLIC "-//W3C//DTD SVG 1.1//EN" "http://www.w3.org/Graphics/SVG/1.1/DTD/svg11.dtd" >
<svg>
<metadata>
Created by FontForge 20090914 at Thu Jul  9 10:27:57 2015
 By www-data
</metadata>
<defs>
<font id="Bedrock-Cyr" horiz-adv-x="687" >
  <font-face 
    font-family="Bedrock-Cyr"
    font-weight="400"
    font-stretch="normal"
    units-per-em="2048"
    panose-1="2 11 6 3 5 3 2 2 2 4"
    ascent="1638"
    descent="-410"
    x-height="1075"
    cap-height="1560"
    bbox="-117 -484.001 1126 1749"
    underline-thickness="0"
    underline-position="0"
    unicode-range="U+0020-U+00FF"
  />
<missing-glyph horiz-adv-x="2048" 
d="M262 0l-196.002 -0.00195312v1323c0 40.667 11.333 79.334 34 116.001c23.333 36.667 53.333 66 90 88s75.334 33 116.001 33h109c40.667 0 80 -11.667 118 -35c36.667 -23.333 66.334 -53.666 89.001 -90.999c22 -37.333 33 -76.333 33 -117v-1317h-192v485h-201v-485z
M257.998 1416v-787h201v787h-201z" />
    <glyph glyph-name=".notdef" horiz-adv-x="2048" 
d="M262 0l-196.002 -0.00195312v1323c0 40.667 11.333 79.334 34 116.001c23.333 36.667 53.333 66 90 88s75.334 33 116.001 33h109c40.667 0 80 -11.667 118 -35c36.667 -23.333 66.334 -53.666 89.001 -90.999c22 -37.333 33 -76.333 33 -117v-1317h-192v485h-201v-485z
M257.998 1416v-787h201v787h-201z" />
    <glyph glyph-name="space" unicode=" " horiz-adv-x="512" 
 />
    <glyph glyph-name="exclam" unicode="!" horiz-adv-x="279" 
d="M221 12c-14 -8 -34.001 -12.001 -60.001 -12.001c-28 0 -48.333 8 -61 24c-14 18.667 -24 43.334 -30 74.001c0.666992 27.333 10 51 28 71c18.667 18.667 41.334 28 68.001 28c30 0 54 -10 72 -30c18.667 -20 28 -44.333 28 -73c0 -22.667 -5.33301 -41 -16 -55
c-10 -15.333 -19.667 -24.333 -29 -27zM65.999 533.999v1026h196v-1225c-56 0 -102.667 19.333 -140 58c-37.333 37.333 -56 84.333 -56 141z" />
    <glyph glyph-name="quotedbl" unicode="&#x22;" horiz-adv-x="563" 
d="M149 1560c26.667 0 50.333 -9.66602 71 -28.999c19.333 -18 30.333 -42 33 -72c0 -39.333 -10 -78 -30 -116c-21.333 -38.667 -46 -58 -74 -58h-27v83c-8.66699 0 -22 8 -40 24c-18 15.333 -28 37.666 -30 66.999c0 28.667 10 52.667 30 72s42.333 29 67 29z
M436.999 1560c27.333 0 50 -8.99902 68 -26.999c17.333 -18.667 28 -43.334 32 -74.001c0 -36.667 -10 -75 -30 -115c-20.667 -39.333 -44 -59 -70 -59h-33v83c-10 2.66699 -22.333 11.667 -37 27c-15.333 14 -24 37 -26 69c0 24.667 9.33301 47 28 67
c19.333 19.333 42 29 68 29z" />
    <glyph glyph-name="numbersign" unicode="#" horiz-adv-x="867" 
d="M347 813v-79h-115v-77h115v-106h86v106h65v-106h91v106h119v81h-119v75h119v84h-119v112h-91v-108h-65v108h-86v-108h-111v-88h111zM433 734v79h65v-79h-65zM471 1140c64 0 123.001 -16.002 177.001 -48.002c54.667 -34 98 -78.333 130 -133c32 -55.333 48 -116 48 -182
c0 -64 -16 -123.333 -48 -178c-32 -55.333 -75.333 -99 -130 -131c-55.333 -32.667 -114.333 -49 -177 -49s-121.334 16.333 -176.001 49c-55.333 32.667 -98.333 76.334 -129 131.001c-32 54.667 -48 114 -48 178c0 64.667 15.667 125.334 47 182.001
c32 56 75.333 100 130 132c53.333 32.667 112 49 176 49z" />
    <glyph glyph-name="dollar" unicode="$" horiz-adv-x="674" 
d="M249 1274v141h197v-131h196v-288h-196v144h-184v-433h149c36.667 0 73.334 -11.667 110.001 -35c36.667 -24.667 66 -55.334 88 -92.001c22 -38 33 -76.333 33 -115v-230c0 -117.333 -65.333 -195.666 -196 -234.999v-144h-197v144h-184v288h197v-158h184v433h-134
c-46.667 0 -89 11.667 -127 35s-67.333 55.333 -88 96c-21.333 41.333 -32 86 -32 134v215c0 30.667 8 64 24 100c14.667 36 36.667 67.333 66 94c27.333 24.667 58.666 37 93.999 37z" />
    <glyph glyph-name="percent" unicode="%" horiz-adv-x="853" 
d="M464 433c-74.667 0 -138.334 15.999 -191.001 47.999c-53.333 32.667 -93.333 75.667 -120 129c-27.333 53.333 -41 109.333 -41 168s13.333 115.334 40 170.001c26.667 52.667 66.667 96 120 130c54.667 32.667 118.667 49 192 49c72.667 0 135.667 -16.333 189 -49
c52.667 -33.333 92.667 -77 120 -131c26.667 -54.667 40 -111 40 -169s-13.333 -114 -40 -168c-27.333 -53.333 -67 -96.333 -119 -129c-53.333 -32 -116.666 -48 -189.999 -48zM410 563.999l246 445h-136l-249 -445h139zM263 980.999c-13.333 -14 -21.667 -31.667 -25 -53
c8 -49.333 36 -78.333 84 -87c22.667 3.33301 42.334 13 59.001 29c16.667 14.667 25 33 25 55c0 20 -8.66699 39.333 -26 58c-18.667 17.333 -38 26 -58 26c-20.667 0 -40.334 -9.33301 -59.001 -28zM548.999 700.999c-12.667 -16.667 -21.002 -35.666 -25.002 -56.999
c6.66699 -48.667 36.334 -75.334 89.001 -80.001c22.667 2.66699 42.334 11 59.001 25c16.667 13.333 25 31.333 25 54s-9 43 -27 61c-20 18.667 -40.333 28 -61 28c-26.667 0 -46.667 -10.333 -60 -31z" />
    <glyph glyph-name="ampersand" unicode="&#x26;" horiz-adv-x="750" 
d="M449 1073l1 343h-192v-343h191zM449 929l-140.999 -0.000976562c-67.333 0 -126.666 24 -177.999 72c-21.333 20 -41.833 52.333 -61.5 97s-24.5 76 -14.5 94l-1 130c0 36.667 9.5 71.334 28.5 104.001s39.5 57 61.5 73c21.333 15.333 48.5 29.333 81.5 42
s68.167 19 105.5 19h48c45.333 0 90.333 -10 135 -30c41.333 -19.333 75.666 -47.333 102.999 -84c26 -38 39 -79.333 39 -124v-302c10 -8.66699 22.333 -28 37 -58s22 -69.667 22 -119l1 -230h-155v149c-4.66699 -4 -9.83398 -7.5 -15.501 -10.5s-10.5 -5.83301 -14.5 -8.5
c-38.667 -23.333 -82.667 -35 -132 -35h-140v-564h192v157h205v-301h-355c-42.667 0 -83 10.667 -121 32c-39.333 20.667 -70 49 -92 85c-22.667 36 -34 74.667 -34 116v377c0 40.667 11 79.667 33 117c22 36.667 52 67 90 91c38 22.667 77.667 34 119 34h155z" />
    <glyph glyph-name="quotesingle" unicode="'" horiz-adv-x="261" 
d="M150 1560c30.667 0 53.999 -10.333 69.999 -31c16.667 -20.667 26.334 -44 29.001 -70c0 -39.333 -10 -78 -30 -116c-20 -38.667 -44 -58 -72 -58h-27v83c-12 2.66699 -26.333 13 -43 31c-16.667 17.333 -25 40.333 -25 69c2 22.667 11.333 43.667 28 63s40 29 70 29z
" />
    <glyph glyph-name="parenleft" unicode="(" horiz-adv-x="645" 
d="M328 -39l283.001 1.00098c-10.667 -44.667 -37 -80 -79 -106c-43.333 -26 -80.333 -39 -111 -39h-59c-40 0 -77.667 12.333 -113 37c-36 25.333 -64.667 57 -86 95c-21.333 40 -32 79.667 -32 119v1437c0 35.333 11.333 72.666 34 111.999c23.333 38 53.333 68.333 90 91
c37.333 23.333 75.666 35 114.999 35h55c33.333 0 67.333 -12.667 102 -38c34 -26 63.333 -61.333 88 -106h-287v-1638z" />
    <glyph glyph-name="parenright" unicode=")" horiz-adv-x="633" 
d="M406 1599l-290.001 -0.000976562c16.667 40 44 74 82 102c36.667 28 73.334 42 110.001 42h61c32 0 66.667 -10 104 -30c36 -20 67 -48.667 93 -86c24.667 -39.333 37 -82.666 37 -129.999v-1429c0 -38 -10.333 -77 -31 -117c-20.667 -38 -49 -70 -85 -96
c-36.667 -25.333 -76 -38 -118 -38h-61c-32.667 0 -69 13.333 -109 40c-40 26 -69 61 -87 105h294v1637z" />
    <glyph glyph-name="asterisk" unicode="*" horiz-adv-x="811" 
d="M451 668l2 138l-77 -1l2 -136l-100 99l-67 -68l97 -95l-133 1l1 -76l140 -1l-100 -97l65 -69l95 101l1 -138l75 4l2 133l95 -95l69 71l-93 88l124 1l1 81l-131 -2l97 95l-65 64zM418 917c64 0 123.333 -15.667 178 -47c53.333 -31.333 96.333 -74 129 -128
c32 -53.333 48 -112.333 48 -177c0 -64 -16 -123 -48 -177c-32.667 -54.667 -75.667 -97.334 -129 -128.001c-54.667 -31.333 -114 -47 -178 -47s-122.667 15.333 -176 46c-54 30.667 -97 73.334 -129 128.001s-48 114 -48 178s16 123 48 177s75 96.667 129 128
s112.667 47 176 47z" />
    <glyph glyph-name="comma" unicode="," horiz-adv-x="261" 
d="M149 184c32 0 56.667 -10.667 74 -32c17.333 -22.667 26 -47 26 -73c0 -39.333 -10 -77.333 -30 -114c-21.333 -37.333 -46 -56 -74 -56h-27v84c-44 12.667 -66 44 -66 94c0 23.333 8.66699 45.333 26 66s41 31 71 31z" />
    <glyph glyph-name="hyphen" unicode="-" horiz-adv-x="811" 
d="M655 608h-472v-144h472v144zM420 896c62.667 0 121 -16 175 -48c54.667 -32.667 98 -76.334 130 -131.001c32 -55.333 48 -115 48 -179c0 -65.333 -16 -126 -48 -182c-33.333 -56.667 -76.333 -100.667 -129 -132c-55.333 -32.667 -114 -49 -176 -49
c-63.333 0 -122.333 16.333 -177 49c-54 30.667 -97.333 74.667 -130 132c-32 56 -48 116.667 -48 182c0 64.667 16 124 48 178c32.667 56.667 76 100.334 130 131.001c53.333 32.667 112.333 49 177 49z" />
    <glyph glyph-name="period" unicode="." horiz-adv-x="261" 
d="M181 0h-32.999c-32 -0 -52.667 7.33301 -62 22c-12 14.667 -23.333 40 -34 76c1.33301 27.333 11.666 51 30.999 71c19.333 18.667 42.333 28 69 28c28 0 51 -11 69 -33c18.667 -22 28 -46.667 28 -74c0 -21.333 -5.66699 -40 -17 -56c-12 -16.667 -29 -28 -51 -34z" />
    <glyph glyph-name="slash" unicode="/" horiz-adv-x="1032" 
d="M798 1749l185 -66l-699 -1926l-179 64z" />
    <glyph glyph-name="zero" unicode="0" horiz-adv-x="701" 
d="M83 250l-4.00098 1073c0 38 11 75 33 111c23.333 38 53.333 68.333 90 91c37.333 23.333 75 35 113 35h113c37.333 0 75.333 -12.333 114 -37c36 -23.333 66.333 -54.333 91 -93c23.333 -38 35 -76.333 35 -115v-1081c0 -41.333 -11 -80 -33 -116
c-22 -35.333 -51.667 -64 -89 -86c-38.667 -21.333 -78 -32 -118 -32h-122c-41.333 -0 -78.666 12.333 -111.999 37c-34.667 23.333 -62 55 -82 95c-19.333 38.667 -29 78 -29 118zM274.999 1416v-1272h197v1272h-197z" />
    <glyph glyph-name="one" unicode="1" horiz-adv-x="275" 
d="M66 0l0.000976562 1326c0 54.667 19 103.667 57 147c37.333 42.667 83.666 71.667 138.999 87v-1560h-196z" />
    <glyph glyph-name="two" unicode="2" 
d="M66 0l0.00195312 607c0 39.333 11 78 33 116c21.333 38 50.666 69 87.999 93c36 24 74 36 114 36h158v564h-197v-156h-196v300h322c44 0 86.667 -10 128 -30c41.333 -19.333 74.666 -47 99.999 -83c26 -36 39 -76.667 39 -122v-351c0 -48.667 -11 -93 -33 -133
c-22 -40.667 -52.667 -73 -92 -97s-83 -36 -131 -36h-137v-564h197v158h196v-302h-589z" />
    <glyph glyph-name="three" unicode="3" 
d="M655 1322l-0.000976562 -1087c0 -64.667 -25 -120 -75 -166c-51.333 -46 -106.333 -69 -165 -69h-349v301h197v-157h196v564h-196v144h196v564h-196v-156h-197v300h349c38 0 75.667 -11 113 -33c36.667 -21.333 67.334 -50 92.001 -86c23.333 -38 35 -77.667 35 -119z
" />
    <glyph glyph-name="four" unicode="4" horiz-adv-x="760" 
d="M642 485v-485.001h-196v485h-149c-66.667 0 -121.667 22.667 -165 68c-44 44.667 -66 101.334 -66 170.001v704h196v-798h184v931h196v-931h82v-144h-82z" />
    <glyph glyph-name="five" unicode="5" horiz-adv-x="701" 
d="M66 708l-0.000976562 852h602v-300h-192v156h-201v-564h137c46.667 0 89.667 -12 129 -36c38.667 -24 69.667 -56 93 -96c22.667 -40 34 -83 34 -129v-355c0 -69.333 -27.667 -126 -83 -170s-118.666 -66 -189.999 -66h-77c-67.333 0 -126 25.667 -176 77
c-50.667 51.333 -76 111 -76 179v46h205v-158h201v564h-406z" />
    <glyph glyph-name="six" unicode="6" 
d="M275 931v-787h184v787h-184zM275 1416l-0.000976562 -340.999h145c38.667 0 76.334 -11.667 113.001 -35c37.333 -24.667 66.666 -54.334 87.999 -89.001c22.667 -36.667 34 -75 34 -115v-594c0 -40.667 -11 -79.334 -33 -116.001c-22 -38 -51 -68.333 -87 -91
c-38 -23.333 -76.333 -35 -115 -35h-106c-39.333 0 -76.666 11.333 -111.999 34c-37.333 22.667 -67 52.334 -89 89.001c-22.667 36 -34 73 -34 111v1089c0 36.667 11.667 74 35 112c22 35.333 52 65.333 90 90c37.333 23.333 74 35 110 35h341v-295h-196v151h-184z" />
    <glyph glyph-name="seven" unicode="7" horiz-adv-x="646" 
d="M616 0l-197 -0.000976562v1416h-196v-177h-197v321h348c40 0 78.667 -11 116 -33c36.667 -21.333 67 -50.666 91 -87.999c23.333 -38 35 -76.667 35 -116v-1323z" />
    <glyph glyph-name="eight" unicode="8" horiz-adv-x="674" 
d="M66 254v377.999l95 159l-95 154v382c0 37.333 11 74 33 110s51.333 65.333 88 88c36 23.333 73 35 111 35h111c38.667 0 76 -12 112 -36c37.333 -25.333 66.666 -56 87.999 -92c22 -37.333 33 -75 33 -113v-374l-99 -154l99 -159v-395
c0 -43.333 -10.333 -82.666 -31 -117.999c-21.333 -36.667 -49.666 -65.667 -84.999 -87c-38 -21.333 -77 -32 -117 -32h-113c-43.333 -0 -82 12.333 -116 37c-36.667 24.667 -64.667 56.667 -84 96c-20 38.667 -30 79 -30 121zM262 720.999v-577h184v577h-184zM262 1416
v-551h184v551h-184z" />
    <glyph glyph-name="nine" unicode="9" horiz-adv-x="701" 
d="M472 629v787h-197v-787h197zM472 144l-0.000976562 340.999h-154c-40 0 -78.333 11 -115 33c-37.333 22 -67.333 51.333 -90 88c-22.667 36 -34 74.667 -34 116v594c0 40.667 11 79.667 33 117c22 38 51.667 68.667 89 92s76.333 35 117 35h112c36 0 73 -11.667 111 -35
c36.667 -22.667 67.334 -52.667 92.001 -90c23.333 -36 35 -73.333 35 -112v-1088c0 -39.333 -11.333 -77 -34 -113c-24 -37.333 -54 -66.666 -90 -87.999c-36.667 -22.667 -74.667 -34 -114 -34h-347v297h192v-153h197z" />
    <glyph glyph-name="colon" unicode=":" horiz-adv-x="275" 
d="M198 399c-12.667 0 -23.667 -1.33203 -33 -3.99902c-48 4.66699 -78.667 26.667 -92 66c0 2 -2.66699 12.333 -8 31c2 27.333 12.333 50.333 31 69c18 18 41 27 69 27s51 -10 69 -30c18.667 -18.667 28 -42.334 28 -71.001c0 -18.667 -6 -37 -18 -55s-27.333 -29 -46 -33
zM198 8.00098l-41.001 -8.00098c-26.667 2.66699 -46 12 -58 28c-13.333 16 -24.666 38.667 -33.999 68c1.33301 28 12 51.333 32 70c20 18 44 27 72 27c26.667 0 49 -9.33301 67 -28c17.333 -20 26 -43 26 -69c0 -47.333 -21.333 -76.666 -64 -87.999z" />
    <glyph glyph-name="semicolon" unicode=";" horiz-adv-x="261" 
d="M175 386c-8.66699 0 -18.333 -1.33398 -29 -4.00098c-50 4.66699 -82.667 28.334 -98 71.001c0 4 -3 14.667 -9 32c1.33301 28 11.666 51.667 30.999 71c18.667 18 42.667 27 72 27c30.667 0 55.667 -10 75 -30c18.667 -22 28 -47.667 28 -77c0 -20 -6 -38.333 -18 -55
c-11.333 -17.333 -28.666 -29 -51.999 -35zM146.001 183.999c31.333 0 55.667 -10.666 73 -31.999c18 -22.667 28 -45.667 30 -69c0 -38.667 -10.333 -77.334 -31 -116.001c-22 -38.667 -47.333 -58 -76 -58h-28v80c-15.333 4 -30.333 14.667 -45 32
c-17.333 19.333 -26 44.333 -26 75c0 19.333 9.33301 39 28 59c18 19.333 43 29 75 29z" />
    <glyph glyph-name="less" unicode="&#x3c;" horiz-adv-x="811" 
d="M482 765l-249 -248l249 -248l71 76l-176 172l176 176zM418 873c63.333 0 122.333 -15.667 177 -47c54 -32 97.333 -75 130 -129c32 -54 48 -112.667 48 -176c0 -64 -16 -123 -48 -177c-32.667 -54.667 -75.667 -97.334 -129 -128.001c-54.667 -31.333 -114 -47 -178 -47
c-63.333 0 -122 15.667 -176 47c-54 30.667 -97 73.334 -129 128.001c-32 54 -48 113 -48 177c0 62 16 120.667 48 176c32 54 75 97 129 129c55.333 31.333 114 47 176 47z" />
    <glyph glyph-name="equal" unicode="=" horiz-adv-x="811" 
d="M655 675h-472v-92h472v92zM655 505h-472v-92h472v92zM418 898c63.333 0 122.668 -15.333 178.001 -46c54 -32.667 97 -75 129 -127s48 -110 48 -174s-16 -122.333 -48 -175c-32 -53.333 -75 -95.333 -129 -126c-54.667 -31.333 -114 -47 -178 -47
c-62.667 0 -121.334 15.333 -176.001 46s-97.667 73 -129 127c-32 52.667 -48 111 -48 175c0 62.667 16 120.667 48 174c32 52.667 75 94.667 129 126s112.667 47 176 47z" />
    <glyph glyph-name="greater" unicode="&#x3e;" horiz-adv-x="811" 
d="M358 296l250 247l-250 248l-72 -76l173 -172l-173 -176zM418 891c64 0 123.001 -15.668 177.001 -47.001c54.667 -32.667 98 -75.667 130 -129c32 -54 48 -112.667 48 -176c0 -64 -16 -123 -48 -177s-75.333 -96.667 -130 -128c-56 -31.333 -115 -47 -177 -47
c-63.333 0 -122 15.667 -176 47c-54 30.667 -97 73.334 -129 128.001c-32 54 -48 113 -48 177c0 62 16 120.667 48 176c31.333 53.333 74.666 96.333 129.999 129c52.667 31.333 111 47 175 47z" />
    <glyph glyph-name="question" unicode="?" 
d="M383 -7h-29c-27.333 0 -46 6.66699 -56 20c-10.667 12.667 -22.667 37.667 -36 75c2.66699 28.667 13 52 31 70c18 17.333 41 26 69 26c27.333 0 50 -10 68 -30c19.333 -20.667 29 -44 29 -70c0 -48 -25.333 -78.333 -76 -91zM459 490l0.000976562 -161.999
c-56.667 0 -103.667 18.333 -141 55c-37.333 37.333 -56 78.333 -56 123v123h197v787h-197v-220h-196v118c0 40.667 11 80 33 118s52 69 90 93c37.333 23.333 76.333 35 117 35h109c37.333 0 75.666 -11.333 114.999 -34c38 -24 68.333 -53.333 91 -88
c22.667 -37.333 34 -75.333 34 -114v-581c0 -18.667 -4 -47 -12 -85c-9.33301 -38.667 -25.333 -70 -48 -94c-26 -26.667 -52.333 -45.667 -79 -57c-27.333 -10.667 -46.333 -16.334 -57 -17.001z" />
    <glyph glyph-name="A" unicode="A" 
d="M262 0l-196.002 -0.00195312v1323c0 40.667 11.333 79.334 34 116.001c23.333 36.667 53.333 66 90 88s75.334 33 116.001 33h109c40.667 0 80 -11.667 118 -35c36.667 -23.333 66.334 -53.666 89.001 -90.999c22 -37.333 33 -76.333 33 -117v-1317h-192v485h-201v-485z
M257.998 1416v-787h201v787h-201z" />
    <glyph glyph-name="B" unicode="B" horiz-adv-x="674" 
d="M249 708v-564h197v564h-197zM249 1416v-564h197v564h-197zM401 0l-349 0.000976562v1560h349c39.333 0 78 -11.667 116 -35c36.667 -22.667 67 -53 91 -91c22.667 -38 34 -77 34 -117v-379l-98 -156l98 -152v-396c0 -41.333 -11 -80 -33 -116
c-21.333 -34.667 -51.333 -63.334 -90 -86.001c-36.667 -21.333 -76 -32 -118 -32z" />
    <glyph glyph-name="C" unicode="C" 
d="M655 1075l-196 -0.000976562v341h-197v-1272h197v343h196v-251c0 -42.667 -11.333 -81.667 -34 -117c-23.333 -36 -53.333 -65 -90 -87c-38.667 -21.333 -78 -32 -118 -32h-116c-65.333 0 -120 25.667 -164 77c-44.667 51.333 -67 109.333 -67 174v1072
c0 38.667 11 76.667 33 114c22 36.667 51.667 66.334 89 89.001c38 22.667 76.333 34 115 34h114c40 0 78.333 -11.667 115 -35c38 -25.333 68 -56 90 -92c22 -37.333 33 -75.333 33 -114v-244z" />
    <glyph glyph-name="D" unicode="D" 
d="M275 1416v-1272h184v1272h-184zM79 0v1560h335c36.667 0 74 -9.66699 112 -29c37.333 -20 68 -47.667 92 -83c24.667 -36.667 37 -78.334 37 -125.001v-1088c0 -62.667 -24.667 -117.334 -74 -164.001c-50 -47.333 -104 -71 -162 -71h-340z" />
    <glyph glyph-name="E" unicode="E" 
d="M66 234l-0.000976562 1089c0 39.333 11.333 77.333 34 114s53 66.334 91 89.001c38.667 22.667 77.667 34 117 34h347v-485h-196v341h-197v-564h197v-144h-197v-564h197v344h196v-488h-347c-40 0 -79 11 -117 33c-39.333 22 -69.666 51 -90.999 87
c-22.667 35.333 -34 73.333 -34 114z" />
    <glyph glyph-name="F" unicode="F" 
d="M655 1560v-485.002h-197v341h-196v-564h193v-144h-193v-708h-196v1323c0 38.667 11.333 76.334 34 113.001c21.333 34.667 51.333 64.334 90 89.001c37.333 23.333 75 35 113 35h352z" />
    <glyph glyph-name="G" unicode="G" 
d="M655 1075l-196 -0.000976562v341h-197v-1272h197v564h-119v144h315v-616c0 -42.667 -11.333 -81.667 -34 -117c-23.333 -36 -53.333 -65 -90 -87c-38.667 -21.333 -78 -32 -118 -32h-116c-65.333 0 -120 25.667 -164 77c-44.667 51.333 -67 109.333 -67 174v1072
c0 38.667 11 76.667 33 114c22 36.667 51.667 66.334 89 89.001c38 22.667 76.333 34 115 34h114c40 0 78.333 -11.667 115 -35c38 -25.333 68 -56 90 -92c22 -37.333 33 -75.333 33 -114v-244z" />
    <glyph glyph-name="H" unicode="H" 
d="M66 0v1560h196v-708h197v708h196v-1560h-196v708h-197v-708h-196z" />
    <glyph glyph-name="I" unicode="I" horiz-adv-x="288" 
d="M79 1560h196v-1560h-196v1560z" />
    <glyph glyph-name="J" unicode="J" 
d="M459 1560l196 0.000976562v-1325c0 -42.667 -11.333 -81.667 -34 -117s-52.667 -64 -90 -86c-38.667 -21.333 -78 -32 -118 -32h-116c-65.333 0 -120 25.667 -164 77c-44.667 51.333 -67 109.666 -67 174.999v372h196v-480h197v1416z" />
    <glyph glyph-name="K" unicode="K" 
d="M459 852v708h196v-622l-106 -156l106 -151v-722c-56.667 16 -103 45.333 -139 88c-38 42 -57 90.333 -57 145v566h-197v-708h-196v1560h196v-708h197z" />
    <glyph glyph-name="L" unicode="L" horiz-adv-x="701" 
d="M79 1560h196v-1416h197v176h196v-320h-349c-42.667 0 -82.667 10.667 -120 32c-38 22.667 -67.333 52 -88 88c-21.333 36 -32 75.333 -32 118v1322z" />
    <glyph glyph-name="M" unicode="M" horiz-adv-x="1086" 
d="M1035 0l-195.999 0.000976562v1416h-197v-1412h-196v1412h-184v-1412h-196v1309c0 39.333 10.333 78 31 116c20 37.333 48.333 68.666 85 93.999c35.333 24.667 73.666 37 114.999 37h500c37.333 0 75.333 -11.333 114 -34c37.333 -24.667 67.333 -54.667 90 -90
c22.667 -36 34 -73.667 34 -113v-1323z" />
    <glyph glyph-name="N" unicode="N" 
d="M66 1560h347.001c40.667 0 79.667 -11 117 -33c37.333 -23.333 67.666 -52.666 90.999 -87.999c22.667 -36.667 34 -75.334 34 -116.001v-1323h-196v1416h-197v-1416h-196v1560z" />
    <glyph glyph-name="O" unicode="O" 
d="M66 250v1073c0 39.333 11.333 77 34 113c22.667 36.667 53.334 66.334 92.001 89.001c37.333 23.333 75.333 35 114 35h109c40 0 78.667 -12 116 -36s67.333 -54.667 90 -92c22.667 -38 34 -77 34 -117v-1081c0 -42.667 -10.667 -81.667 -32 -117
c-22.667 -36.667 -52 -65 -88 -85c-38.667 -21.333 -78.667 -32 -120 -32h-117c-42 0 -80.333 12 -115 36c-36.667 24.667 -65.334 56.334 -86.001 95.001c-20.667 38 -31 77.667 -31 119zM262 1416v-1272h197v1272h-197z" />
    <glyph glyph-name="P" unicode="P" 
d="M262 1416v-787h197v787h-197zM655 1316l-0.00195312 -580.002c0 -40.667 -10.667 -80.667 -32 -120c-22.667 -38.667 -52 -70 -88 -94c-36.667 -24.667 -76.667 -37 -120 -37h-153v-485h-196v1323c0 40.667 11.333 79.334 34 116.001c23.333 36.667 53.333 66 90 88
s75.334 33 116.001 33h109c40.667 0 80 -11.667 118 -35c36.667 -23.333 66.334 -53.666 89.001 -90.999c22 -38 33 -77.333 33 -118z" />
    <glyph glyph-name="Q" unicode="Q" horiz-adv-x="701" 
d="M275 1416v-1272h197v1272h-197zM472 0h-163.998c-42.667 0 -81.334 12 -116.001 36c-36 24 -63.667 55.667 -83 95c-20 38 -30 78 -30 120v1072c0 38.667 11.333 76 34 112c22.667 36.667 52.667 66.667 90 90s75.333 35 114 35h113c40 0 79 -11.667 117 -35
c35.333 -22.667 64.666 -53 87.999 -91c22 -37.333 33 -76.333 33 -117v-1447c-47.333 0 -89 12.333 -125 37c-37.333 24.667 -61 55.667 -71 93z" />
    <glyph glyph-name="R" unicode="R" 
d="M262 1416v-564h201v564h-201zM510 0c-34 36.667 -51.002 81.335 -51.002 134.002v574h-197v-704h-196v1556h350c40 0 78.667 -12 116 -36c36.667 -24.667 66.334 -55.334 89.001 -92.001c22.667 -38 34 -76.333 34 -115v-379l-99 -156l99 -151v-722
c-51.333 13.333 -99.666 43.666 -144.999 90.999v0z" />
    <glyph glyph-name="S" unicode="S" horiz-adv-x="674" 
d="M642 610l-0.00195312 -377.001c0 -41.333 -11 -80 -33 -116c-23.333 -36.667 -52.666 -65 -87.999 -85c-36.667 -21.333 -75 -32 -115 -32h-340v301h196v-157h184v564h-134c-47.333 0 -89.666 11.667 -126.999 35c-38 23.333 -67.333 55.333 -88 96
c-20.667 40 -31 84.333 -31 133v350c0 46.667 12.333 88 37 124c23.333 34.667 56.333 62.667 99 84c40 20 83 30 129 30h311v-300h-196v156h-184v-564h149c38 0 75.667 -11.333 113 -34c35.333 -23.333 64 -53.666 86 -90.999c21.333 -37.333 32 -76.333 32 -117z" />
    <glyph glyph-name="T" unicode="T" horiz-adv-x="674" 
d="M52 1560h590v-144h-196v-1416h-197v1416h-197v144z" />
    <glyph glyph-name="U" unicode="U" 
d="M459 1560h196.001v-1325c0 -42.667 -10.667 -82 -32 -118c-22.667 -36.667 -52 -65 -88 -85c-38.667 -21.333 -78.667 -32 -120 -32h-117c-42 0 -80.333 12 -115 36c-36.667 25.333 -65.334 57.333 -86.001 96c-20.667 38 -31 77.667 -31 119v1309h196v-1416h197v1416z
" />
    <glyph glyph-name="V" unicode="V" horiz-adv-x="674" 
d="M446 1560h196v-1174l-288 -386l-288 384v1176h196v-1132l92 -129l92 129v1132z" />
    <glyph glyph-name="W" unicode="W" horiz-adv-x="1101" 
d="M985 1494c42.667 -40 64.001 -95.668 64.001 -167.001v-1092c0 -41.333 -11.667 -80 -35 -116s-53.333 -65 -90 -87c-38.667 -21.333 -77.667 -32 -117 -32h-509c-42 0 -80.333 12 -115 36c-35.333 24 -64 56 -86 96c-20.667 38 -31 77.667 -31 119v1309h196v-1416h197
v1416c12 -4 31.667 -12.667 59 -26c25.333 -12 50.666 -29.667 75.999 -53c22 -24 37.667 -51 47 -81c9.33301 -32.667 14 -56.667 14 -72v-1184h197v1416c13.333 -4 35 -11.667 65 -23c25.333 -9.33301 48 -23.666 68 -42.999z" />
    <glyph glyph-name="X" unicode="X" 
d="M262 1060l94 -124l103 124v500h196v-539l-186 -239l186 -247v-531h-196v492l-99 137l-98 -137v-492h-196v531l180 243l-180 239v543h196v-500z" />
    <glyph glyph-name="Y" unicode="Y" 
d="M463 1560h192v-833c0 -54.667 -18.667 -103 -56 -145c-38 -44 -83.333 -76.333 -136 -97v-485h-199v489c-57.333 15.333 -105 47 -143 95c-36.667 47.333 -55 100.333 -55 159v817h198v-932h199v932z" />
    <glyph glyph-name="Z" unicode="Z" horiz-adv-x="674" 
d="M642 0h-576v416l380 731v269h-184v-156h-193v300h573v-413l-380 -731v-272h184v158h196v-302z" />
    <glyph glyph-name="bracketleft" unicode="[" horiz-adv-x="651" 
d="M328 -39l292 1l-138 -145h-351v1926h342l139 -144h-284v-1638z" />
    <glyph glyph-name="backslash" unicode="\" horiz-adv-x="1045" 
d="M118 1683l183 66l695 -1928l-183 -64z" />
    <glyph glyph-name="bracketright" unicode="]" horiz-adv-x="619" 
d="M100 -39l293 1v1637h-281l137 144h341v-1926h-357z" />
    <glyph glyph-name="asciicircum" unicode="^" horiz-adv-x="633" 
d="M354 1560l249 -252l-72 -69l-177 172l-177 -172l-72 74z" />
    <glyph glyph-name="underscore" unicode="_" horiz-adv-x="880" 
d="M-26 -130h865v-144h-864z" />
    <glyph glyph-name="grave" unicode="`" horiz-adv-x="439" 
d="M175 1560l244 -244l-70 -77l-244 246z" />
    <glyph glyph-name="a" unicode="a" horiz-adv-x="772" 
d="M446 144v433h-184v-433h184zM299 721l147 -5v215h-309c12 39.333 29.667 69.666 53 90.999c22.667 20 49.667 34 81 42c32 7.33301 68.667 11 110 11h261v-931h94v-144h-435c-40.667 0 -79 11.333 -115 34c-38.667 24 -67.667 53.667 -87 89
c-22 36.667 -33 74.667 -33 114v257c0 38.667 11.667 75.334 35 110.001c23.333 34 53.333 62.333 90 85c37.333 21.333 73.333 32 108 32z" />
    <glyph glyph-name="b" unicode="b" horiz-adv-x="674" 
d="M258 931v-787h188v787h-188zM642 839l-0.00195312 -596c0 -64 -23.333 -120.333 -70 -169c-47.333 -49.333 -102.666 -74 -165.999 -74h-106c-40 0 -78 11 -114 33c-36 20.667 -65.333 50 -88 88c-21.333 36 -32 74 -32 114v1325h196v-485h141c36 0 73 -10.667 111 -32
c36.667 -21.333 67.334 -50 92.001 -86c24 -36 36 -75.333 36 -118z" />
    <glyph glyph-name="c" unicode="c" 
d="M655 683l-196.001 -0.00195312v208h-197v-747h197v230h196v-142c0 -39.333 -11.333 -76.666 -34 -111.999c-23.333 -36.667 -53.666 -65.667 -90.999 -87c-37.333 -22 -76.333 -33 -117 -33h-116c-41.333 0 -80 12 -116 36c-36 24.667 -64 56.334 -84 95.001
c-20.667 38 -31 78 -31 120v585c0 39.333 11 77 33 113c22 36.667 51.667 60 89 70c34.667 10.667 73 16 115 16h114c40 0 78.667 -23 116 -69c37.333 -47.333 67 -87 89 -119c22 -34 33 -62.333 33 -85v-79z" />
    <glyph glyph-name="d" unicode="d" horiz-adv-x="716" 
d="M482 144v787h-215v-787h215zM52 244v595c0 40.667 12 79 36 115c24 34.667 56.667 63.667 98 87c41.333 22.667 84 34 128 34h168v484h200v-1559h-178v11c-24.667 -7.33301 -48 -11 -70 -11h-124c-42.667 0 -84 12 -124 36c-40.667 24 -73 54.667 -97 92
c-24.667 38 -37 76.667 -37 116z" />
    <glyph glyph-name="e" unicode="e" 
d="M655 485l-393 -0.00195312v-341h197v169h192v-77c0 -42 -10.667 -81 -32 -117s-50.333 -65 -87 -87c-36.667 -21.333 -75.667 -32 -117 -32h-115c-42.667 0 -82 12 -118 36c-36.667 22.667 -65 54 -85 94c-20.667 38 -31 78.667 -31 122v587
c0 38.667 11.333 76.334 34 113.001s53 66.334 91 89.001s76.333 34 115 34h109c39.333 0 78 -11.667 116 -35c36.667 -24 66.667 -55 90 -93c22.667 -38 34 -77 34 -117v-345zM262 628.998h197v302h-197v-302z" />
    <glyph glyph-name="f" unicode="f" horiz-adv-x="624" 
d="M301 0l-183 -0.000976562v936h-79v139h79v249c0 41.333 10.667 80.333 32 117c22 36.667 51.333 65.334 88 86.001c36 22 75 33 117 33h240v-144h-294v-341h201v-144h-201v-931z" />
    <glyph glyph-name="g" unicode="g" 
d="M459 144v787h-197v-787h197zM655 1075v-1559h-339c-49.333 0 -93 10.667 -131 32c-36.667 20.667 -66 50.334 -88 89.001c-20.667 38 -31 81 -31 129v91h196v-197h197v340h-154c-40 0 -78.333 11 -115 33c-38 22 -68 51 -90 87c-22.667 36 -34 74 -34 114v582
c0 44 10.333 86 31 126c21.333 40 50.333 72 87 96c36 24.667 77 37 123 37h348z" />
    <glyph glyph-name="h" unicode="h" 
d="M262 1075h150.002c41.333 0 80.666 -11 117.999 -33s67.666 -51 90.999 -87c22.667 -36 34 -74.667 34 -116v-839h-196v931h-197v-931h-196v1560h196v-485z" />
    <glyph glyph-name="i" unicode="i" horiz-adv-x="275" 
d="M262 897v-897h-196v1075c56 0 102.667 -17.333 140 -52c35.333 -36 54 -78 56 -126z" />
    <glyph glyph-name="j" unicode="j" horiz-adv-x="275" 
d="M66 1075h196v-1324c0 -40.667 -11.333 -79 -34 -115c-23.333 -36.667 -53 -65.667 -89 -87c-37.333 -22 -76 -33 -116 -33h-140v144h183v1415z" />
    <glyph glyph-name="k" unicode="k" 
d="M459 721v354.001h196v-270l-101 -157l101 -148v-591c-54 15.333 -100 45 -138 89c-38.667 43.333 -58 91.666 -58 144.999v434h-184v-577h-196v1560h196v-839h184z" />
    <glyph glyph-name="l" unicode="l" horiz-adv-x="275" 
d="M262 1380v-1380h-196v1560c34 0 66 -8 96 -24c30.667 -16 55 -37.333 73 -64c18 -27.333 27 -58 27 -92z" />
    <glyph glyph-name="m" unicode="m" horiz-adv-x="1128" 
d="M25 1075h810c42 0 81 -11 117 -33c37.333 -22.667 67 -51.667 89 -87c22.667 -37.333 34 -76 34 -116v-839h-197v935h-196v-935h-197v931h-184v-931h-196v931h-80v144z" />
    <glyph glyph-name="n" unicode="n" horiz-adv-x="716" 
d="M29 1075l415 0.000976562c40.667 0 79 -11 115 -33c35.333 -22 65 -51 89 -87c22.667 -38.667 34 -77.334 34 -116.001v-839h-197v931h-184v-931h-196v936h-76v139z" />
    <glyph glyph-name="o" unicode="o" 
d="M66 252l0.000976562 586.999c0 38.667 10.667 76.334 32 113.001s50.666 66.334 87.999 89.001c36.667 22.667 75 34 115 34h114c40 0 79 -11.667 117 -35c36.667 -24.667 66.334 -55.334 89.001 -92.001c22.667 -38 34 -77 34 -117v-595c0 -42 -11 -81 -33 -117
c-22 -35.333 -52 -64.333 -90 -87c-36.667 -21.333 -75.667 -32 -117 -32h-117c-42 0 -80.333 12 -115 36c-36.667 25.333 -65.334 57.333 -86.001 96c-20.667 38 -31 78 -31 120zM262.001 930.999v-787h197v787h-197z" />
    <glyph glyph-name="p" unicode="p" 
d="M262 931v-787h197v787h-197zM655 831l0.000976562 -594.999c0 -40.667 -11 -79 -33 -115c-23.333 -36 -53.333 -65 -90 -87c-38 -22.667 -76.667 -34 -116 -34h-154v-484h-183v1324c0 38.667 10.333 76 31 112c21.333 36.667 49.333 66 84 88
c35.333 23.333 72.666 35 111.999 35h113c39.333 0 77 -12 113 -36c38 -25.333 67.667 -56 89 -92c22.667 -36.667 34 -75.334 34 -116.001z" />
    <glyph glyph-name="q" unicode="q" 
d="M459 144v787h-197v-787h197zM52 242v590c0 38.667 11.667 77 35 115c24 38 55 69 93 93c38 23.333 77.333 35 118 35h116c38.667 0 77 -11.667 115 -35c38 -24 68.333 -54 91 -90c23.333 -38 35 -76 35 -114v-1320h-196v484h-158c-40.667 0 -80.667 11.667 -120 35
c-39.333 22.667 -70.333 53 -93 91c-24 38 -36 76.667 -36 116z" />
    <glyph glyph-name="r" unicode="r" 
d="M655 1075l-0.000976562 -363h-196v219h-197v-931h-196v840c0 38.667 11.333 76.334 34 113.001c24.667 37.333 55.334 66.666 92.001 87.999c38 22.667 76.333 34 115 34h348z" />
    <glyph glyph-name="s" unicode="s" 
d="M655 385l-0.000976562 -148.999c0 -42 -11.333 -80.667 -34 -116c-24 -37.333 -54.667 -66.333 -92 -87c-37.333 -22 -76 -33 -116 -33h-347v290h196v-146h197v341h-139c-48 0 -91.333 12 -130 36c-39.333 22.667 -70 54.667 -92 96
c-21.333 41.333 -32 85.666 -32 132.999v88c0 48 12.667 89.333 38 124c24.667 36 58.334 63.667 101.001 83c42 20 86 30 132 30h318v-295h-196v151h-197v-302h154c39.333 0 78 -11.667 116 -35c37.333 -24.667 67 -55.667 89 -93c22.667 -38 34 -76.667 34 -116z" />
    <glyph glyph-name="t" unicode="t" horiz-adv-x="630" 
d="M105 1560h196v-485h197v-144h-197v-787h299v-144h-256c-42.667 0 -82.667 10.667 -120 32s-66.333 50 -87 86c-21.333 36 -32 75.667 -32 119v694h-80v138h80v491z" />
    <glyph glyph-name="u" unicode="u" horiz-adv-x="767" 
d="M731 0h-434c-62.667 0 -117 23 -163 69c-45.333 45.333 -68 99.333 -68 162v844h196v-931h197v931h196v-931h76v-144z" />
    <glyph glyph-name="v" unicode="v" 
d="M459 1075h196v-688l-297 -387l-292 385v690h196v-647l96 -129l101 129v647z" />
    <glyph glyph-name="w" unicode="w" horiz-adv-x="1101" 
d="M1049 844l0.000976562 -608c0 -41.333 -11.333 -80.333 -34 -117c-22.667 -36 -53 -65 -91 -87c-38 -21.333 -77 -32 -117 -32h-512c-42.667 0 -81.334 12 -116.001 36c-35.333 24 -63 55.667 -83 95c-20 38.667 -30 79 -30 121v823h196v-931h197v931
c62 -17.333 110.333 -49 145 -95c34 -45.333 51 -91.333 51 -138v-698h197v931c66 -15.333 115.333 -43 148 -83c32.667 -42 49 -91.333 49 -148z" />
    <glyph glyph-name="x" unicode="x" horiz-adv-x="701" 
d="M275 819l96 -123l101 127v252h196v-291l-186 -239l186 -248v-293h-196v252l-101 135l-96 -135v-252h-196v293l184 243l-184 240v295h196v-256z" />
    <glyph glyph-name="y" unicode="y" 
d="M651 1075l4 -1324c0 -40.667 -11.333 -79 -34 -115c-24.667 -37.333 -54.667 -66.333 -90 -87c-37.333 -22 -76 -33 -116 -33h-349v312h196v-181h200v353h-154c-42 0 -81.667 10.667 -119 32c-38.667 21.333 -68.667 50 -90 86c-22 36 -33 74.667 -33 116v841h196v-931
h197v931h192z" />
    <glyph glyph-name="z" unicode="z" 
d="M655 0h-589v295l393 513v123h-197v-152h-193v296h586v-302l-393 -514v-115h200v158h193v-302z" />
    <glyph glyph-name="braceleft" unicode="{" horiz-adv-x="735" 
d="M406 -39l293.998 1.00195c-15.333 -37.333 -42.666 -71 -81.999 -101c-40.667 -29.333 -79.667 -44 -117 -44h-59c-41.333 0 -79.666 12.667 -114.999 38c-36 25.333 -64.667 57.666 -86 96.999c-20.667 38 -31 77 -31 117v560l-101 151l101 155v569
c0 63.333 24 119 72 167c48.667 48 104.667 72 168 72h56c40 0 80.333 -17.333 121 -52c32 -26.667 54.667 -57.334 68 -92.001h-289v-660l-99 -151l99 -155v-672z" />
    <glyph glyph-name="bar" unicode="|" horiz-adv-x="371" 
d="M157 1560h197v-2036v-8h-197v2036v8z" />
    <glyph glyph-name="braceright" unicode="}" horiz-adv-x="738" 
d="M116 -39l289.998 1v668l101 156l-101 151v662h-290c2 4 5.16699 9.66699 9.5 17s9.83301 16 16.5 26c12 21.333 26 38 42 50c24.667 22 48.667 36 72 42c22.667 6 39.334 9 50.001 9h58c38.667 0 76.334 -11.333 113.001 -34c38 -24 68.333 -54 91 -90
c23.333 -38 35 -76.333 35 -115v-567l100 -155l-100 -152v-561c0 -37.333 -10.667 -75.666 -32 -114.999c-23.333 -40.667 -52.333 -73.334 -87 -98.001c-36.667 -26 -74 -39 -112 -39h-61c-40 0 -80 14.667 -120 44c-41.333 29.333 -66.333 63 -75 101v-1z" />
    <glyph glyph-name="dieresis" unicode="&#xa8;" 
d="M278 1702c39.333 0 59 -19.667 59 -59s-19.667 -59 -59 -59s-59 19.667 -59 59s19.667 59 59 59zM452 1702c39.333 0 59 -19.667 59 -59s-19.667 -59 -59 -59s-59 19.667 -59 59s19.667 59 59 59zM66 234l0.000976562 1089c0 39.333 11.333 77.333 34 114
c21.333 35.333 51.666 65 90.999 89c38.667 22.667 77.667 34 117 34h347v-485h-196v341h-197v-564h197v-144h-197v-564h197v344h196v-488h-347c-40 0 -79 11 -117 33c-40 22 -70.333 51 -91 87c-22.667 34 -34 72 -34 114z" />
    <glyph glyph-name="cedilla" unicode="&#xb8;" 
d="M655 485l-393.001 -0.00195312v-341h197v169h192v-77c0 -42 -10.667 -81 -32 -117s-50.333 -65 -87 -87c-38 -21.333 -77 -32 -117 -32h-115c-42.667 0 -82 12 -118 36c-37.333 22.667 -65.666 54 -84.999 94c-20.667 38.667 -31 79.334 -31 122.001v587
c0 38.667 11.333 76.334 34 113.001c21.333 35.333 51.666 65 90.999 89c38.667 22.667 77 34 115 34h109c38.667 0 77.334 -11.667 116.001 -35c37.333 -25.333 67.333 -56.333 90 -93c22.667 -39.333 34 -78.333 34 -117v-345zM261.999 628.998h197v302h-197v-302z
M241.999 1265c54 0 81 -27 81 -81s-27 -81 -81 -81s-81 27 -81 81s27 81 81 81zM461.999 1265c54.667 0 82 -27 82 -81s-27.333 -81 -82 -81c-54 0 -81 27 -81 81s27 81 81 81z" />
    <glyph glyph-name="Agrave" unicode="&#xc0;" 
d="M262 0l-196.002 -0.00195312v1323c0 40.667 11.333 79.334 34 116.001c23.333 36.667 53.333 66 90 88s75.334 33 116.001 33h109c40.667 0 80 -11.667 118 -35c36.667 -23.333 66.334 -53.666 89.001 -90.999c22 -37.333 33 -76.333 33 -117v-1317h-192v485h-201v-485z
M257.998 1416v-787h201v787h-201z" />
    <glyph glyph-name="Agrave" unicode="&#x410;" 
d="M262 0l-196.002 -0.00195312v1323c0 40.667 11.333 79.334 34 116.001c23.333 36.667 53.333 66 90 88s75.334 33 116.001 33h109c40.667 0 80 -11.667 118 -35c36.667 -23.333 66.334 -53.666 89.001 -90.999c22 -37.333 33 -76.333 33 -117v-1317h-192v485h-201v-485z
M257.998 1416v-787h201v787h-201z" />
    <glyph glyph-name="Aacute" unicode="&#xc1;" horiz-adv-x="676" 
d="M250 144h197v787h-197v-787zM644 243c0 -64 -23.167 -120.499 -69.5 -169.499s-103.5 -73.5 -171.5 -73.5h-352v237v1325h351c59.333 -2 113 -26 161 -72c19.333 -18.667 37.333 -43.5 54 -74.5s25 -59.5 25 -85.5v-40h-196v126h-196v-341h153
c42.667 0 82.667 -12.333 120 -37c36.667 -24.667 66 -56.334 88 -95.001c22 -38 33 -78 33 -120v-580z" />
    <glyph glyph-name="Aacute" unicode="&#x411;" horiz-adv-x="676" 
d="M250 144h197v787h-197v-787zM644 243c0 -64 -23.167 -120.499 -69.5 -169.499s-103.5 -73.5 -171.5 -73.5h-352v237v1325h351c59.333 -2 113 -26 161 -72c19.333 -18.667 37.333 -43.5 54 -74.5s25 -59.5 25 -85.5v-40h-196v126h-196v-341h153
c42.667 0 82.667 -12.333 120 -37c36.667 -24.667 66 -56.334 88 -95.001c22 -38 33 -78 33 -120v-580z" />
    <glyph glyph-name="Acircumflex" unicode="&#xc2;" horiz-adv-x="674" 
d="M249 708v-564h197v564h-197zM249 1416v-564h197v564h-197zM401 0l-349 0.000976562v1560h349c39.333 0 78 -11.667 116 -35c36.667 -22.667 67 -53 91 -91c22.667 -38 34 -77 34 -117v-379l-98 -156l98 -152v-396c0 -41.333 -11 -80 -33 -116
c-21.333 -34.667 -51.333 -63.334 -90 -86.001c-36.667 -21.333 -76 -32 -118 -32z" />
    <glyph glyph-name="Acircumflex" unicode="&#x412;" horiz-adv-x="674" 
d="M249 708v-564h197v564h-197zM249 1416v-564h197v564h-197zM401 0l-349 0.000976562v1560h349c39.333 0 78 -11.667 116 -35c36.667 -22.667 67 -53 91 -91c22.667 -38 34 -77 34 -117v-379l-98 -156l98 -152v-396c0 -41.333 -11 -80 -33 -116
c-21.333 -34.667 -51.333 -63.334 -90 -86.001c-36.667 -21.333 -76 -32 -118 -32z" />
    <glyph glyph-name="Atilde" unicode="&#xc3;" 
d="M65 0v1323c0 39.333 11.667 78 35 116c23.333 37.333 53.666 66.666 90.999 87.999c36.667 22 75.334 33 116.001 33h348v-321h-196v177h-197v-1416h-197z" />
    <glyph glyph-name="Atilde" unicode="&#x413;" 
d="M65 0v1323c0 39.333 11.667 78 35 116c23.333 37.333 53.666 66.666 90.999 87.999c36.667 22 75.334 33 116.001 33h348v-321h-196v177h-197v-1416h-197z" />
    <glyph glyph-name="Adieresis" unicode="&#xc4;" horiz-adv-x="850" 
d="M328 144h200l-2 1272h-197zM131 0l-65 -90.001v234h67v1179c0 42.667 11.333 81.334 34 116.001c20.667 34.667 50.667 64 90 88c36 22 75.333 33 118 33h347v-1418l88 2v-234l-88 90h-591z" />
    <glyph glyph-name="Adieresis" unicode="&#x414;" horiz-adv-x="850" 
d="M328 144h200l-2 1272h-197zM131 0l-65 -90.001v234h67v1179c0 42.667 11.333 81.334 34 116.001c20.667 34.667 50.667 64 90 88c36 22 75.333 33 118 33h347v-1418l88 2v-234l-88 90h-591z" />
    <glyph glyph-name="Aring" unicode="&#xc5;" 
d="M66 234l-0.000976562 1089c0 39.333 11.333 77.333 34 114s53 66.334 91 89.001c38.667 22.667 77.667 34 117 34h347v-485h-196v341h-197v-564h197v-144h-197v-564h197v344h196v-488h-347c-40 0 -79 11 -117 33c-39.333 22 -69.666 51 -90.999 87
c-22.667 35.333 -34 73.333 -34 114z" />
    <glyph glyph-name="Aring" unicode="&#x415;" 
d="M66 234l-0.000976562 1089c0 39.333 11.333 77.333 34 114s53 66.334 91 89.001c38.667 22.667 77.667 34 117 34h347v-485h-196v341h-197v-564h197v-144h-197v-564h197v344h196v-488h-347c-40 0 -79 11 -117 33c-39.333 22 -69.666 51 -90.999 87
c-22.667 35.333 -34 73.333 -34 114z" />
    <glyph glyph-name="AE" unicode="&#xc6;" horiz-adv-x="931" 
d="M691 852l-0.000976562 708h196v-622l-106 -156l106 -151v-721c-54 14.667 -100.333 44 -139 88c-38 42 -57 90 -57 144v566h-117v-708h-196v708h-116v-574c-2 -24.667 -7.66699 -49.5 -17 -74.5s-27.666 -50.833 -54.999 -77.5c-33.333 -33.333 -75 -57.333 -125 -72v721
l106 151l-106 157v623h197v-710h116v708h196v-708h117z" />
    <glyph glyph-name="AE" unicode="&#x416;" horiz-adv-x="931" 
d="M691 852l-0.000976562 708h196v-622l-106 -156l106 -151v-721c-54 14.667 -100.333 44 -139 88c-38 42 -57 90 -57 144v566h-117v-708h-196v708h-116v-574c-2 -24.667 -7.66699 -49.5 -17 -74.5s-27.666 -50.833 -54.999 -77.5c-33.333 -33.333 -75 -57.333 -125 -72v721
l106 151l-106 157v623h197v-710h116v708h196v-708h117z" />
    <glyph glyph-name="Ccedilla" unicode="&#xc7;" 
d="M655 234c0 -38.667 -11.333 -76.667 -34 -114c-22 -36 -52.333 -65 -91 -87c-38 -22 -77 -33 -117 -33h-347v488h196v-344h197v564h-197v144h197v564h-197v-341h-196v485h347c38.667 0 77.667 -11.333 117 -34c38.667 -24 69 -53.667 91 -89
c22.667 -37.333 34 -75.333 34 -114v-403l-107 -143l107 -128v-415z" />
    <glyph glyph-name="Ccedilla" unicode="&#x417;" 
d="M655 234c0 -38.667 -11.333 -76.667 -34 -114c-22 -36 -52.333 -65 -91 -87c-38 -22 -77 -33 -117 -33h-347v488h196v-344h197v564h-197v144h197v564h-197v-341h-196v485h347c38.667 0 77.667 -11.333 117 -34c38.667 -24 69 -53.667 91 -89
c22.667 -37.333 34 -75.333 34 -114v-403l-107 -143l107 -128v-415z" />
    <glyph glyph-name="Egrave" unicode="&#xc8;" horiz-adv-x="780" 
d="M459 1560l196 -0.00195312v-1418h88v-142h-61c-14.667 0 -29.834 2.5 -45.501 7.5s-25.5 8.5 -29.5 10.5s-11.833 6.33301 -23.5 13s-19.5 12.334 -23.5 17.001c-7.33301 -6 -15.666 -11.333 -24.999 -16c-38.667 -21.333 -78.667 -32 -120 -32h-117
c-42.667 0 -81 12 -115 36c-36 24 -64.667 56 -86 96c-20.667 38.667 -31 78.334 -31 119.001v1309h196v-1416h197v1416z" />
    <glyph glyph-name="Egrave" unicode="&#x418;" horiz-adv-x="780" 
d="M459 1560l196 -0.00195312v-1418h88v-142h-61c-14.667 0 -29.834 2.5 -45.501 7.5s-25.5 8.5 -29.5 10.5s-11.833 6.33301 -23.5 13s-19.5 12.334 -23.5 17.001c-7.33301 -6 -15.666 -11.333 -24.999 -16c-38.667 -21.333 -78.667 -32 -120 -32h-117
c-42.667 0 -81 12 -115 36c-36 24 -64.667 56 -86 96c-20.667 38.667 -31 78.334 -31 119.001v1309h196v-1416h197v1416z" />
    <glyph glyph-name="Eacute" unicode="&#xc9;" horiz-adv-x="781" 
d="M459 1560l197 -0.000976562v-1418h88v-142h-61c-14 0 -29.333 2.66699 -46 8c-16 4 -25.667 7.33301 -29 10c-8 4 -16 8.33301 -24 13c-9.33301 4.66699 -17 10.334 -23 17.001c-7.33301 -6 -15.666 -11.333 -24.999 -16c-40 -21.333 -80 -32 -120 -32h-118
c-43.333 0 -81.333 12 -114 36c-36.667 24 -65.334 56 -86.001 96c-20.667 38 -31 77.667 -31 119v1309h195v-1416h197v1416zM262 1616v131h197v-131h-197z" />
    <glyph glyph-name="Eacute" unicode="&#x419;" horiz-adv-x="781" 
d="M459 1560l197 -0.000976562v-1418h88v-142h-61c-14 0 -29.333 2.66699 -46 8c-16 4 -25.667 7.33301 -29 10c-8 4 -16 8.33301 -24 13c-9.33301 4.66699 -17 10.334 -23 17.001c-7.33301 -6 -15.666 -11.333 -24.999 -16c-40 -21.333 -80 -32 -120 -32h-118
c-43.333 0 -81.333 12 -114 36c-36.667 24 -65.334 56 -86.001 96c-20.667 38 -31 77.667 -31 119v1309h195v-1416h197v1416zM262 1616v131h197v-131h-197z" />
    <glyph glyph-name="Ecircumflex" unicode="&#xca;" 
d="M459 852v708h196v-622l-106 -156l106 -151v-722c-56.667 16 -103 45.333 -139 88c-38 42 -57 90.333 -57 145v566h-197v-708h-196v1560h196v-708h197z" />
    <glyph glyph-name="Ecircumflex" unicode="&#x41a;" 
d="M459 852v708h196v-622l-106 -156l106 -151v-722c-56.667 16 -103 45.333 -139 88c-38 42 -57 90.333 -57 145v566h-197v-708h-196v1560h196v-708h197z" />
    <glyph glyph-name="Edieresis" unicode="&#xcb;" horiz-adv-x="716" 
d="M304 1561l378 0.999023v-1562h-196v1421l-223 -3l-1 -1267c3.33301 -54 -15.667 -104.333 -57 -151c-36.667 -41.333 -83 -71.333 -139 -90v1415c0 40.667 11.333 79.334 34 116.001c21.333 36.667 51 66 89 88c40 21.333 78.333 32 115 32z" />
    <glyph glyph-name="Edieresis" unicode="&#x41b;" horiz-adv-x="716" 
d="M304 1561l378 0.999023v-1562h-196v1421l-223 -3l-1 -1267c3.33301 -54 -15.667 -104.333 -57 -151c-36.667 -41.333 -83 -71.333 -139 -90v1415c0 40.667 11.333 79.334 34 116.001c21.333 36.667 51 66 89 88c40 21.333 78.333 32 115 32z" />
    <glyph glyph-name="Igrave" unicode="&#xcc;" horiz-adv-x="1086" 
d="M1035 0l-196 0.000976562v1362c-48 -8.66699 -93.333 -42.5 -136 -101.5s-63 -120.833 -61 -185.5v-1075h-196v300.5v236.5v237v301c-4 61.333 -24.333 123 -61 185s-77.667 96 -123 102v-1362h-196v1562h193c24 0 77.333 -28.167 160 -84.5s124 -137.5 124 -243.5
c0 106 41.5 186.833 124.5 242.5s142.167 84.167 177.5 85.5c39.333 0 80.833 0.666992 124.5 2s65.5 0.666016 65.5 -2.00098v-1562z" />
    <glyph glyph-name="Igrave" unicode="&#x41c;" horiz-adv-x="1086" 
d="M1035 0l-196 0.000976562v1362c-48 -8.66699 -93.333 -42.5 -136 -101.5s-63 -120.833 -61 -185.5v-1075h-196v300.5v236.5v237v301c-4 61.333 -24.333 123 -61 185s-77.667 96 -123 102v-1362h-196v1562h193c24 0 77.333 -28.167 160 -84.5s124 -137.5 124 -243.5
c0 106 41.5 186.833 124.5 242.5s142.167 84.167 177.5 85.5c39.333 0 80.833 0.666992 124.5 2s65.5 0.666016 65.5 -2.00098v-1562z" />
    <glyph glyph-name="Iacute" unicode="&#xcd;" 
d="M66 0v1560h196v-708h197v708h196v-1560h-196v708h-197v-708h-196z" />
    <glyph glyph-name="Iacute" unicode="&#x41d;" 
d="M66 0v1560h196v-708h197v708h196v-1560h-196v708h-197v-708h-196z" />
    <glyph glyph-name="Icircumflex" unicode="&#xce;" 
d="M66 250v1073c0 39.333 11.333 77 34 113c22.667 36.667 53.334 66.334 92.001 89.001c37.333 23.333 75.333 35 114 35h109c40 0 78.667 -12 116 -36s67.333 -54.667 90 -92c22.667 -38 34 -77 34 -117v-1081c0 -42.667 -10.667 -81.667 -32 -117
c-22.667 -36.667 -52 -65 -88 -85c-38.667 -21.333 -78.667 -32 -120 -32h-117c-42 0 -80.333 12 -115 36c-36.667 24.667 -65.334 56.334 -86.001 95.001c-20.667 38 -31 77.667 -31 119zM262 1416v-1272h197v1272h-197z" />
    <glyph glyph-name="Icircumflex" unicode="&#x41e;" 
d="M66 250v1073c0 39.333 11.333 77 34 113c22.667 36.667 53.334 66.334 92.001 89.001c37.333 23.333 75.333 35 114 35h109c40 0 78.667 -12 116 -36s67.333 -54.667 90 -92c22.667 -38 34 -77 34 -117v-1081c0 -42.667 -10.667 -81.667 -32 -117
c-22.667 -36.667 -52 -65 -88 -85c-38.667 -21.333 -78.667 -32 -120 -32h-117c-42 0 -80.333 12 -115 36c-36.667 24.667 -65.334 56.334 -86.001 95.001c-20.667 38 -31 77.667 -31 119zM262 1416v-1272h197v1272h-197z" />
    <glyph glyph-name="Idieresis" unicode="&#xcf;" 
d="M66 0v1560h196h197h196v-1560h-198l1 1416h-197v-1416h-195z" />
    <glyph glyph-name="Idieresis" unicode="&#x41f;" 
d="M66 0v1560h196h197h196v-1560h-198l1 1416h-197v-1416h-195z" />
    <glyph glyph-name="Eth" unicode="&#xd0;" 
d="M262 1416v-787h197v787h-197zM655 1316l-0.00195312 -580.002c0 -40.667 -10.667 -80.667 -32 -120c-22.667 -38.667 -52 -70 -88 -94c-36.667 -24.667 -76.667 -37 -120 -37h-153v-485h-196v1323c0 40.667 11.333 79.334 34 116.001c23.333 36.667 53.333 66 90 88
s75.334 33 116.001 33h109c40.667 0 80 -11.667 118 -35c36.667 -23.333 66.334 -53.666 89.001 -90.999c22 -38 33 -77.333 33 -118z" />
    <glyph glyph-name="Eth" unicode="&#x420;" 
d="M262 1416v-787h197v787h-197zM655 1316l-0.00195312 -580.002c0 -40.667 -10.667 -80.667 -32 -120c-22.667 -38.667 -52 -70 -88 -94c-36.667 -24.667 -76.667 -37 -120 -37h-153v-485h-196v1323c0 40.667 11.333 79.334 34 116.001c23.333 36.667 53.333 66 90 88
s75.334 33 116.001 33h109c40.667 0 80 -11.667 118 -35c36.667 -23.333 66.334 -53.666 89.001 -90.999c22 -38 33 -77.333 33 -118z" />
    <glyph glyph-name="Ntilde" unicode="&#xd1;" 
d="M655 1075l-196 -0.000976562v341h-197v-1272h197v343h196v-251c0 -42.667 -11.333 -81.667 -34 -117c-23.333 -36 -53.333 -65 -90 -87c-38.667 -21.333 -78 -32 -118 -32h-116c-65.333 0 -120 25.667 -164 77c-44.667 51.333 -67 109.333 -67 174v1072
c0 38.667 11 76.667 33 114c22 36.667 51.667 66.334 89 89.001c38 22.667 76.333 34 115 34h114c40 0 78.333 -11.667 115 -35c38 -25.333 68 -56 90 -92c22 -37.333 33 -75.333 33 -114v-244z" />
    <glyph glyph-name="Ntilde" unicode="&#x421;" 
d="M655 1075l-196 -0.000976562v341h-197v-1272h197v343h196v-251c0 -42.667 -11.333 -81.667 -34 -117c-23.333 -36 -53.333 -65 -90 -87c-38.667 -21.333 -78 -32 -118 -32h-116c-65.333 0 -120 25.667 -164 77c-44.667 51.333 -67 109.333 -67 174v1072
c0 38.667 11 76.667 33 114c22 36.667 51.667 66.334 89 89.001c38 22.667 76.333 34 115 34h114c40 0 78.333 -11.667 115 -35c38 -25.333 68 -56 90 -92c22 -37.333 33 -75.333 33 -114v-244z" />
    <glyph glyph-name="Ograve" unicode="&#xd2;" horiz-adv-x="674" 
d="M52 1562l590 -3v-143l-196 2v-1418h-197v1418h-197v144z" />
    <glyph glyph-name="Ograve" unicode="&#x422;" horiz-adv-x="674" 
d="M52 1562l590 -3v-143l-196 2v-1418h-197v1418h-197v144z" />
    <glyph glyph-name="Oacute" unicode="&#xd3;" 
d="M651 1560l3.99902 -1325c0 -41.333 -11.333 -79.666 -34 -114.999c-24.667 -38 -54.667 -67 -90 -87c-37.333 -22 -76 -33 -116 -33h-350v312h197v-181h200v354h-155c-41.333 0 -80.666 10.667 -117.999 32c-38 20.667 -68 49.334 -90 86.001
c-22.667 36.667 -34 75.334 -34 116.001v841h197v-931h197v931h192z" />
    <glyph glyph-name="Oacute" unicode="&#x423;" 
d="M651 1560l3.99902 -1325c0 -41.333 -11.333 -79.666 -34 -114.999c-24.667 -38 -54.667 -67 -90 -87c-37.333 -22 -76 -33 -116 -33h-350v312h197v-181h200v354h-155c-41.333 0 -80.666 10.667 -117.999 32c-38 20.667 -68 49.334 -90 86.001
c-22.667 36.667 -34 75.334 -34 116.001v841h197v-931h197v931h192z" />
    <glyph glyph-name="Ocircumflex" unicode="&#xd4;" horiz-adv-x="1099" 
d="M654 1416v-787h196v787h-196zM1047 1316l0.000976562 -580c0 -41.333 -11 -81.333 -33 -120c-22.667 -38.667 -52 -70 -88 -94c-38.667 -24.667 -78.667 -37 -120 -37h-152v-485h-197l-2 485l1 144l-1 786h-194v-786h194v-144l-174 -2c-52 12 -99 36.667 -141 74
s-67 91.666 -75 162.999v613c0 43.333 22 91.833 66 145.5s95.333 80.834 154 81.501l126 2c32.667 0 64.667 -7.33301 96 -22s54 -29 68 -43c13.333 14 32.166 28 56.499 42s46.5 21 66.5 21h108c42 0 81.333 -11.667 118 -35c36 -22.667 66 -53 90 -91
c22 -38 33 -77.333 33 -118z" />
    <glyph glyph-name="Ocircumflex" unicode="&#x424;" horiz-adv-x="1099" 
d="M654 1416v-787h196v787h-196zM1047 1316l0.000976562 -580c0 -41.333 -11 -81.333 -33 -120c-22.667 -38.667 -52 -70 -88 -94c-38.667 -24.667 -78.667 -37 -120 -37h-152v-485h-197l-2 485l1 144l-1 786h-194v-786h194v-144l-174 -2c-52 12 -99 36.667 -141 74
s-67 91.666 -75 162.999v613c0 43.333 22 91.833 66 145.5s95.333 80.834 154 81.501l126 2c32.667 0 64.667 -7.33301 96 -22s54 -29 68 -43c13.333 14 32.166 28 56.499 42s46.5 21 66.5 21h108c42 0 81.333 -11.667 118 -35c36 -22.667 66 -53 90 -91
c22 -38 33 -77.333 33 -118z" />
    <glyph glyph-name="Otilde" unicode="&#xd5;" 
d="M262 1060l94 -124l103 124v500h196v-539l-186 -239l186 -247v-531h-196v492l-99 137l-98 -137v-492h-196v531l180 243l-180 239v543h196v-500z" />
    <glyph glyph-name="Otilde" unicode="&#x425;" 
d="M262 1060l94 -124l103 124v500h196v-539l-186 -239l186 -247v-531h-196v492l-99 137l-98 -137v-492h-196v531l180 243l-180 239v543h196v-500z" />
    <glyph glyph-name="Odieresis" unicode="&#xd6;" horiz-adv-x="767" 
d="M459 1560l195.998 -0.000976562v-1418h76v-269c-49.333 0 -91.666 12.333 -126.999 37s-59 54.667 -71 90h-235c-41.333 0 -79.666 12 -114.999 36c-36 24.667 -64.667 56.667 -86 96c-20.667 38.667 -31 78.334 -31 119.001v1309h196v-1416h197v1416z" />
    <glyph glyph-name="Odieresis" unicode="&#x426;" horiz-adv-x="767" 
d="M459 1560l195.998 -0.000976562v-1418h76v-269c-49.333 0 -91.666 12.333 -126.999 37s-59 54.667 -71 90h-235c-41.333 0 -79.666 12 -114.999 36c-36 24.667 -64.667 56.667 -86 96c-20.667 38.667 -31 78.334 -31 119.001v1309h196v-1416h197v1416z" />
    <glyph glyph-name="multiply" unicode="&#xd7;" 
d="M655 0l-200 -0.000976562v486l-158 -1c-66 0 -121 22.667 -165 68c-44 44.667 -66 101.334 -66 170.001v704h196v-798h193v933h200v-1562z" />
    <glyph glyph-name="multiply" unicode="&#x427;" 
d="M655 0l-200 -0.000976562v486l-158 -1c-66 0 -121 22.667 -165 68c-44 44.667 -66 101.334 -66 170.001v704h196v-798h193v933h200v-1562z" />
    <glyph glyph-name="Oslash" unicode="&#xd8;" horiz-adv-x="1101" 
d="M985 1494c42.667 -40 64.001 -95.668 64.001 -167.001v-1092c0 -41.333 -11.667 -80 -35 -116s-53.333 -65 -90 -87c-38.667 -21.333 -77.667 -32 -117 -32h-509c-42 0 -80.333 12 -115 36c-35.333 24 -64 56 -86 96c-20.667 38 -31 77.667 -31 119v1309h196v-1416h197
v1416c12 -4 31.667 -12.667 59 -26c25.333 -12 50.666 -29.667 75.999 -53c22 -24 37.667 -51 47 -81c9.33301 -32.667 14 -56.667 14 -72v-1184h197v1416c13.333 -4 35 -11.667 65 -23c25.333 -9.33301 48 -23.666 68 -42.999z" />
    <glyph glyph-name="Oslash" unicode="&#x428;" horiz-adv-x="1101" 
d="M985 1494c42.667 -40 64.001 -95.668 64.001 -167.001v-1092c0 -41.333 -11.667 -80 -35 -116s-53.333 -65 -90 -87c-38.667 -21.333 -77.667 -32 -117 -32h-509c-42 0 -80.333 12 -115 36c-35.333 24 -64 56 -86 96c-20.667 38 -31 77.667 -31 119v1309h196v-1416h197
v1416c12 -4 31.667 -12.667 59 -26c25.333 -12 50.666 -29.667 75.999 -53c22 -24 37.667 -51 47 -81c9.33301 -32.667 14 -56.667 14 -72v-1184h197v1416c13.333 -4 35 -11.667 65 -23c25.333 -9.33301 48 -23.666 68 -42.999z" />
    <glyph glyph-name="Ugrave" unicode="&#xd9;" horiz-adv-x="1182" 
d="M985 1494c42.667 -40.667 64.001 -96.333 64.001 -167v-1183h77v-234h-158v90h-670c-42 0 -80.333 12 -115 36c-36 25.333 -64.667 57.333 -86 96c-20.667 38 -31 77.667 -31 119v1309h196v-1416h197v1416c12 -4 31.667 -12.667 59 -26
c25.333 -12 50.666 -29.667 75.999 -53c22 -24 37.667 -51 47 -81c9.33301 -32.667 14 -56.667 14 -72v-1184h197v1416c13.333 -4 35 -11.667 65 -23c24 -8.66699 46.667 -23 68 -43z" />
    <glyph glyph-name="Ugrave" unicode="&#x429;" horiz-adv-x="1182" 
d="M985 1494c42.667 -40.667 64.001 -96.333 64.001 -167v-1183h77v-234h-158v90h-670c-42 0 -80.333 12 -115 36c-36 25.333 -64.667 57.333 -86 96c-20.667 38 -31 77.667 -31 119v1309h196v-1416h197v1416c12 -4 31.667 -12.667 59 -26
c25.333 -12 50.666 -29.667 75.999 -53c22 -24 37.667 -51 47 -81c9.33301 -32.667 14 -56.667 14 -72v-1184h197v1416c13.333 -4 35 -11.667 65 -23c24 -8.66699 46.667 -23 68 -43z" />
    <glyph glyph-name="Uacute" unicode="&#xda;" horiz-adv-x="788" 
d="M358 144h196v787h-196v-787zM751 243c0 -41.333 -11 -80.332 -33 -116.999c-22.667 -38.667 -52.667 -69 -90 -91c-38 -23.333 -77.333 -35 -118 -35h-108c-40 0 -79 11 -117 33c-37.333 22 -67.333 51.333 -90 88c-22.667 38 -34 76.667 -34 116v1185l-96 -2v142l293 -2
v-485h152c41.333 0 81.333 -12.333 120 -37c36.667 -24.667 66 -56.334 88 -95.001c22 -38 33 -78 33 -120v-580z" />
    <glyph glyph-name="Uacute" unicode="&#x42a;" horiz-adv-x="788" 
d="M358 144h196v787h-196v-787zM751 243c0 -41.333 -11 -80.332 -33 -116.999c-22.667 -38.667 -52.667 -69 -90 -91c-38 -23.333 -77.333 -35 -118 -35h-108c-40 0 -79 11 -117 33c-37.333 22 -67.333 51.333 -90 88c-22.667 38 -34 76.667 -34 116v1185l-96 -2v142l293 -2
v-485h152c41.333 0 81.333 -12.333 120 -37c36.667 -24.667 66 -56.334 88 -95.001c22 -38 33 -78 33 -120v-580z" />
    <glyph glyph-name="Ucircumflex" unicode="&#xdb;" horiz-adv-x="997" 
d="M328 146h196v786h-196v-786zM721 245c0 -41.333 -11 -80.333 -33 -117c-23.333 -38.667 -53.333 -69 -90 -91c-38.667 -24 -78 -35.667 -118 -35h-108c-41.333 0 -80 11 -116 33c-38 21.333 -68.333 50.666 -91 87.999c-22.667 38.667 -34 77.334 -34 116.001v1323h197
v-485h152c42 0 82 -12.333 120 -37c34.667 -24 64 -55.667 88 -95c22 -38 33 -78 33 -120v-580zM950 0h-172v1560l172 2v-1562z" />
    <glyph glyph-name="Ucircumflex" unicode="&#x42b;" horiz-adv-x="997" 
d="M328 146h196v786h-196v-786zM721 245c0 -41.333 -11 -80.333 -33 -117c-23.333 -38.667 -53.333 -69 -90 -91c-38.667 -24 -78 -35.667 -118 -35h-108c-41.333 0 -80 11 -116 33c-38 21.333 -68.333 50.666 -91 87.999c-22.667 38.667 -34 77.334 -34 116.001v1323h197
v-485h152c42 0 82 -12.333 120 -37c34.667 -24 64 -55.667 88 -95c22 -38 33 -78 33 -120v-580zM950 0h-172v1560l172 2v-1562z" />
    <glyph glyph-name="Udieresis" unicode="&#xdc;" 
d="M262 144h197v787h-197v-787zM655 244c0 -42 -10.999 -81.334 -32.999 -118.001c-24 -38 -53.667 -68.333 -89 -91c-38.667 -23.333 -78 -35 -118 -35h-109c-40.667 0 -79.334 11 -116.001 33c-37.333 22 -67.333 51.333 -90 88c-22.667 35.333 -34 74 -34 116v1323h196
v-485h153c43.333 0 83.333 -12.333 120 -37c34.667 -23.333 64 -54.666 88 -93.999c21.333 -40.667 32 -80.667 32 -120v-580z" />
    <glyph glyph-name="Udieresis" unicode="&#x42c;" 
d="M262 144h197v787h-197v-787zM655 244c0 -42 -10.999 -81.334 -32.999 -118.001c-24 -38 -53.667 -68.333 -89 -91c-38.667 -23.333 -78 -35 -118 -35h-109c-40.667 0 -79.334 11 -116.001 33c-37.333 22 -67.333 51.333 -90 88c-22.667 35.333 -34 74 -34 116v1323h196
v-485h153c43.333 0 83.333 -12.333 120 -37c34.667 -23.333 64 -54.666 88 -93.999c21.333 -40.667 32 -80.667 32 -120v-580z" />
    <glyph glyph-name="Yacute" unicode="&#xdd;" 
d="M655 1322l-0.000976562 -1087c0 -64.667 -25 -120 -75 -166c-51.333 -46 -106.333 -69 -165 -69h-349v301h197v-157h196v564h-196v144h196v564h-196v-156h-197v300h349c38 0 75.667 -11 113 -33c36.667 -21.333 67.334 -50 92.001 -86c23.333 -38 35 -77.667 35 -119z
" />
    <glyph glyph-name="Yacute" unicode="&#x42d;" 
d="M655 1322l-0.000976562 -1087c0 -64.667 -25 -120 -75 -166c-51.333 -46 -106.333 -69 -165 -69h-349v301h197v-157h196v564h-196v144h196v564h-196v-156h-197v300h349c38 0 75.667 -11 113 -33c36.667 -21.333 67.334 -50 92.001 -86c23.333 -38 35 -77.667 35 -119z
" />
    <glyph glyph-name="Thorn" unicode="&#xde;" horiz-adv-x="957" 
d="M323 250l-0.00195312 689.999l-61 7v-947h-196v1562h196v-487l61 -7v255c0 38 11.333 75.667 34 113c22.667 36 53.334 65.667 92.001 89c37.333 23.333 75.333 35 114 35h109c38.667 0 77.334 -12 116.001 -36c38 -25.333 68 -56 90 -92c22.667 -38 34 -77 34 -117
v-1081c0 -44.667 -10.667 -83.667 -32 -117c-22 -36 -51.333 -64.333 -88 -85c-38.667 -21.333 -78.667 -32 -120 -32h-117c-42 0 -80.333 12 -115 36c-36 24 -64.667 55.667 -86 95c-20.667 38.667 -31 78.334 -31 119.001zM518.998 1416v-1272h197v1272h-197z" />
    <glyph glyph-name="Thorn" unicode="&#x42e;" horiz-adv-x="957" 
d="M323 250l-0.00195312 689.999l-61 7v-947h-196v1562h196v-487l61 -7v255c0 38 11.333 75.667 34 113c22.667 36 53.334 65.667 92.001 89c37.333 23.333 75.333 35 114 35h109c38.667 0 77.334 -12 116.001 -36c38 -25.333 68 -56 90 -92c22.667 -38 34 -77 34 -117
v-1081c0 -44.667 -10.667 -83.667 -32 -117c-22 -36 -51.333 -64.333 -88 -85c-38.667 -21.333 -78.667 -32 -120 -32h-117c-42 0 -80.333 12 -115 36c-36 24 -64.667 55.667 -86 95c-20.667 38.667 -31 78.334 -31 119.001zM518.998 1416v-1272h197v1272h-197z" />
    <glyph glyph-name="germandbls" unicode="&#xdf;" 
d="M459 1416h-201v-564h201v564zM211 0c-45.333 -46.667 -93.667 -76.667 -145 -90v721l99 151l-99 156v379c0 38.667 11.333 77 34 115c22 36 51.667 66.667 89 92c38 24 76.667 36 116 36h350v-1556h-196v704h-197v-574c0 -53.333 -17 -98 -51 -134z" />
    <glyph glyph-name="germandbls" unicode="&#x42f;" 
d="M459 1416h-201v-564h201v564zM211 0c-45.333 -46.667 -93.667 -76.667 -145 -90v721l99 151l-99 156v379c0 38.667 11.333 77 34 115c22 36 51.667 66.667 89 92c38 24 76.667 36 116 36h350v-1556h-196v704h-197v-574c0 -53.333 -17 -98 -51 -134z" />
    <glyph glyph-name="agrave" unicode="&#xe0;" horiz-adv-x="772" 
d="M446 144v433h-184v-433h184zM299 721l147 -5v215h-309c12 39.333 29.667 69.666 53 90.999c22.667 20 49.667 34 81 42c32 7.33301 68.667 11 110 11h261v-931h94v-144h-435c-40.667 0 -79 11.333 -115 34c-38.667 24 -67.667 53.667 -87 89
c-22 36.667 -33 74.667 -33 114v257c0 38.667 11.667 75.334 35 110.001c23.333 34 53.333 62.333 90 85c37.333 21.333 73.333 32 108 32z" />
    <glyph glyph-name="agrave" unicode="&#x430;" horiz-adv-x="772" 
d="M446 144v433h-184v-433h184zM299 721l147 -5v215h-309c12 39.333 29.667 69.666 53 90.999c22.667 20 49.667 34 81 42c32 7.33301 68.667 11 110 11h261v-931h94v-144h-435c-40.667 0 -79 11.333 -115 34c-38.667 24 -67.667 53.667 -87 89
c-22 36.667 -33 74.667 -33 114v257c0 38.667 11.667 75.334 35 110.001c23.333 34 53.333 62.333 90 85c37.333 21.333 73.333 32 108 32z" />
    <glyph glyph-name="aacute" unicode="&#xe1;" 
d="M66 252v587c0 41.333 12.833 91 38.5 149s78.167 87 157.5 87h60l-183 241c-44.667 58 -55.334 112.5 -32.001 163.5s75 78.5 155 82.5h159h234v-229h-196v85l-197 -3l359 -467c22.667 -30 34 -69 34 -117v-595c0 -41.333 -11 -80.333 -33 -117
c-21.333 -35.333 -51.333 -64.333 -90 -87c-36.667 -21.333 -75.667 -32 -117 -32h-117c-41.333 0 -79.666 12 -114.999 36c-37.333 25.333 -66 57.333 -86 96c-20.667 38 -31 78 -31 120zM262 931v-787h197v787h-197z" />
    <glyph glyph-name="aacute" unicode="&#x431;" 
d="M66 252v587c0 41.333 12.833 91 38.5 149s78.167 87 157.5 87h60l-183 241c-44.667 58 -55.334 112.5 -32.001 163.5s75 78.5 155 82.5h159h234v-229h-196v85l-197 -3l359 -467c22.667 -30 34 -69 34 -117v-595c0 -41.333 -11 -80.333 -33 -117
c-21.333 -35.333 -51.333 -64.333 -90 -87c-36.667 -21.333 -75.667 -32 -117 -32h-117c-41.333 0 -79.666 12 -114.999 36c-37.333 25.333 -66 57.333 -86 96c-20.667 38 -31 78 -31 120zM262 931v-787h197v787h-197z" />
    <glyph glyph-name="acircumflex" unicode="&#xe2;" horiz-adv-x="674" 
d="M258 931v-787h188v787h-188zM642 839l0.000976562 -595.999c0 -64 -23.333 -120.333 -70 -169c-47.333 -49.333 -102.666 -74 -165.999 -74h-106c-40 0 -78 11 -114 33c-38 22 -67.333 51.333 -88 88c-21.333 36 -32 74 -32 114l-1 1327h196l-7 -426h154v300h-154l7 126
h147c39.333 -2 75.833 -11.5 109.5 -28.5s55.5 -47.167 65.5 -90.5v-114v-114c-4.66699 -52 -26.334 -88.833 -65.001 -110.5s-75.334 -33.167 -110.001 -34.5c42 -2.66699 67.667 -5.83398 77 -9.50098s19 -8.16699 29 -13.5c34 -20 64.667 -50 92 -90
c24 -36 36 -75.333 36 -118z" />
    <glyph glyph-name="acircumflex" unicode="&#x432;" horiz-adv-x="674" 
d="M258 931v-787h188v787h-188zM642 839l0.000976562 -595.999c0 -64 -23.333 -120.333 -70 -169c-47.333 -49.333 -102.666 -74 -165.999 -74h-106c-40 0 -78 11 -114 33c-38 22 -67.333 51.333 -88 88c-21.333 36 -32 74 -32 114l-1 1327h196l-7 -426h154v300h-154l7 126
h147c39.333 -2 75.833 -11.5 109.5 -28.5s55.5 -47.167 65.5 -90.5v-114v-114c-4.66699 -52 -26.334 -88.833 -65.001 -110.5s-75.334 -33.167 -110.001 -34.5c42 -2.66699 67.667 -5.83398 77 -9.50098s19 -8.16699 29 -13.5c34 -20 64.667 -50 92 -90
c24 -36 36 -75.333 36 -118z" />
    <glyph glyph-name="atilde" unicode="&#xe3;" 
d="M655 1075l-0.000976562 -253.001h-196v109h-197v-931h-196v840c0 38.667 11.333 76.334 34 113.001c24.667 36.667 55.334 66 92.001 88c38.667 22.667 77 34 115 34h348z" />
    <glyph glyph-name="atilde" unicode="&#x433;" 
d="M655 1075l-0.000976562 -253.001h-196v109h-197v-931h-196v840c0 38.667 11.333 76.334 34 113.001c24.667 36.667 55.334 66 92.001 88c38.667 22.667 77 34 115 34h348z" />
    <glyph glyph-name="adieresis" unicode="&#xe4;" horiz-adv-x="679" 
d="M450 932h-197v-787h197v787zM647 1h-349c-44.667 -0.666992 -85.334 11.666 -122.001 36.999c-37.333 24 -66.333 56 -87 96c-20.667 39.333 -31 81.333 -31 126v582c0 40 11.333 78 34 114c20 34.667 50 63.667 90 87c36 22 74 33 114 33h154v340h-197v-197h-195v92
c0 47.333 10.333 90 31 128c20.667 38.667 49.667 68.334 87 89.001c36.667 21.333 80.334 32 131.001 32h207h133v-1559z" />
    <glyph glyph-name="adieresis" unicode="&#x434;" horiz-adv-x="679" 
d="M450 932h-197v-787h197v787zM647 1h-349c-44.667 -0.666992 -85.334 11.666 -122.001 36.999c-37.333 24 -66.333 56 -87 96c-20.667 39.333 -31 81.333 -31 126v582c0 40 11.333 78 34 114c20 34.667 50 63.667 90 87c36 22 74 33 114 33h154v340h-197v-197h-195v92
c0 47.333 10.333 90 31 128c20.667 38.667 49.667 68.334 87 89.001c36.667 21.333 80.334 32 131.001 32h207h133v-1559z" />
    <glyph glyph-name="aring" unicode="&#xe5;" 
d="M655 485l-393 -0.00195312v-341h197v169h192v-77c0 -42 -10.667 -81 -32 -117s-50.333 -65 -87 -87c-36.667 -21.333 -75.667 -32 -117 -32h-115c-42.667 0 -82 12 -118 36c-36.667 22.667 -65 54 -85 94c-20.667 38 -31 78.667 -31 122v587
c0 38.667 11.333 76.334 34 113.001s53 66.334 91 89.001s76.333 34 115 34h109c39.333 0 78 -11.667 116 -35c36.667 -24 66.667 -55 90 -93c22.667 -38 34 -77 34 -117v-345zM262 628.998h197v302h-197v-302z" />
    <glyph glyph-name="aring" unicode="&#x435;" 
d="M655 485l-393 -0.00195312v-341h197v169h192v-77c0 -42 -10.667 -81 -32 -117s-50.333 -65 -87 -87c-36.667 -21.333 -75.667 -32 -117 -32h-115c-42.667 0 -82 12 -118 36c-36.667 22.667 -65 54 -85 94c-20.667 38 -31 78.667 -31 122v587
c0 38.667 11.333 76.334 34 113.001s53 66.334 91 89.001s76.333 34 115 34h109c39.333 0 78 -11.667 116 -35c36.667 -24 66.667 -55 90 -93c22.667 -38 34 -77 34 -117v-345zM262 628.998h197v302h-197v-302z" />
    <glyph glyph-name="ae" unicode="&#xe6;" horiz-adv-x="920" 
d="M275 721h105v354h195v-354h105v354h197v-270l-102 -157l102 -148v-590c-54 15.333 -100.333 45.333 -139 90c-38.667 44 -58 92 -58 144v433h-105l1 -577h-196v577h-105v-434c0 -54.667 -19.333 -102.667 -58 -144c-38.667 -44 -84.667 -73.667 -138 -89v590l101 148
l-101 157v270h196v-354z" />
    <glyph glyph-name="ae" unicode="&#x436;" horiz-adv-x="920" 
d="M275 721h105v354h195v-354h105v354h197v-270l-102 -157l102 -148v-590c-54 15.333 -100.333 45.333 -139 90c-38.667 44 -58 92 -58 144v433h-105l1 -577h-196v577h-105v-434c0 -54.667 -19.333 -102.667 -58 -144c-38.667 -44 -84.667 -73.667 -138 -89v590l101 148
l-101 157v270h196v-354z" />
    <glyph glyph-name="ccedilla" unicode="&#xe7;" horiz-adv-x="674" 
d="M641 234c0 -38 -11.332 -76 -33.999 -114c-22.667 -36.667 -53 -65.667 -91 -87c-38 -22 -77 -33 -117 -33h-347v307h197v-165l196 2v365h-197v144h197v278h-196v-176h-197v320h347c39.333 0 78.333 -11.333 117 -34c37.333 -23.333 67.666 -53 90.999 -89
c22.667 -38.667 34 -76.667 34 -114l1 -117l-107 -143l107 -128z" />
    <glyph glyph-name="ccedilla" unicode="&#x437;" horiz-adv-x="674" 
d="M641 234c0 -38 -11.332 -76 -33.999 -114c-22.667 -36.667 -53 -65.667 -91 -87c-38 -22 -77 -33 -117 -33h-347v307h197v-165l196 2v365h-197v144h197v278h-196v-176h-197v320h347c39.333 0 78.333 -11.333 117 -34c37.333 -23.333 67.666 -53 90.999 -89
c22.667 -38.667 34 -76.667 34 -114l1 -117l-107 -143l107 -128z" />
    <glyph glyph-name="egrave" unicode="&#xe8;" horiz-adv-x="767" 
d="M459 1075l195.999 -0.00195312v-933h76v-142h-49c-14.667 0 -30 2.5 -46 7.5s-25.667 8.5 -29 10.5c-4 2 -11.833 6.33301 -23.5 13s-19.5 12.334 -23.5 17.001c-7.33301 -6 -15.666 -11.333 -24.999 -16c-38.667 -21.333 -78.667 -32 -120 -32h-117
c-42.667 0 -81 12 -115 36c-38 24.667 -66.667 56.667 -86 96c-20.667 38.667 -31 78.334 -31 119.001v824h196v-931h197v931z" />
    <glyph glyph-name="egrave" unicode="&#x438;" horiz-adv-x="767" 
d="M459 1075l195.999 -0.00195312v-933h76v-142h-49c-14.667 0 -30 2.5 -46 7.5s-25.667 8.5 -29 10.5c-4 2 -11.833 6.33301 -23.5 13s-19.5 12.334 -23.5 17.001c-7.33301 -6 -15.666 -11.333 -24.999 -16c-38.667 -21.333 -78.667 -32 -120 -32h-117
c-42.667 0 -81 12 -115 36c-38 24.667 -66.667 56.667 -86 96c-20.667 38.667 -31 78.334 -31 119.001v824h196v-931h197v931z" />
    <glyph glyph-name="eacute" unicode="&#xe9;" horiz-adv-x="767" 
d="M459 1075l196.001 -0.00292969v-933h76v-142h-49c-16 0 -31.333 2.33301 -46 7c-16 4.66699 -25.667 8.33398 -29 11.001c-8 4 -15.667 8.33301 -23 13c-12 5.33301 -20 11 -24 17c-8 -7.33301 -16.333 -12.666 -25 -15.999c-40 -21.333 -80 -32 -120 -32h-117
c-42.667 0 -81 12 -115 36c-38.667 24.667 -67.334 56.667 -86.001 96c-20.667 38.667 -31 78.334 -31 119.001v824h196v-931h197v931zM262.001 1291h197v-108h-197v108z" />
    <glyph glyph-name="eacute" unicode="&#x439;" horiz-adv-x="767" 
d="M459 1075l196.001 -0.00292969v-933h76v-142h-49c-16 0 -31.333 2.33301 -46 7c-16 4.66699 -25.667 8.33398 -29 11.001c-8 4 -15.667 8.33301 -23 13c-12 5.33301 -20 11 -24 17c-8 -7.33301 -16.333 -12.666 -25 -15.999c-40 -21.333 -80 -32 -120 -32h-117
c-42.667 0 -81 12 -115 36c-38.667 24.667 -67.334 56.667 -86.001 96c-20.667 38.667 -31 78.334 -31 119.001v824h196v-931h197v931zM262.001 1291h197v-108h-197v108z" />
    <glyph glyph-name="ecircumflex" unicode="&#xea;" 
d="M459 721v354h196v-270l-101 -157l101 -148v-590c-54 15.333 -100 45 -138 89c-38.667 41.333 -58 89.333 -58 144v434h-197v-577h-196v1075h196v-354h197z" />
    <glyph glyph-name="ecircumflex" unicode="&#x43a;" 
d="M459 721v354h196v-270l-101 -157l101 -148v-590c-54 15.333 -100 45 -138 89c-38.667 41.333 -58 89.333 -58 144v434h-197v-577h-196v1075h196v-354h197z" />
    <glyph glyph-name="edieresis" unicode="&#xeb;" horiz-adv-x="675" 
d="M304 1075h339v-1075h-196v931h-184l-1 -780c3.33301 -54 -15.667 -104.333 -57 -151c-36.667 -41.333 -83 -71.333 -139 -90v929c0 39.333 11.333 78 34 116c21.333 35.333 51 64.333 89 87c34.667 22 73 33 115 33z" />
    <glyph glyph-name="edieresis" unicode="&#x43b;" horiz-adv-x="675" 
d="M304 1075h339v-1075h-196v931h-184l-1 -780c3.33301 -54 -15.667 -104.333 -57 -151c-36.667 -41.333 -83 -71.333 -139 -90v929c0 39.333 11.333 78 34 116c21.333 35.333 51 64.333 89 87c34.667 22 73 33 115 33z" />
    <glyph glyph-name="igrave" unicode="&#xec;" horiz-adv-x="1128" 
d="M104 1075h351c22 0 46.5 -5 73.5 -15s45.5 -21.667 55.5 -35c9.33301 12.667 27.5 24.167 54.5 34.5s51.167 15.5 72.5 15.5h364v-1075h-197v935h-196v-935c-85.333 38 -151 101 -197 189v742h-184v-931h-196z" />
    <glyph glyph-name="igrave" unicode="&#x43c;" horiz-adv-x="1128" 
d="M104 1075h351c22 0 46.5 -5 73.5 -15s45.5 -21.667 55.5 -35c9.33301 12.667 27.5 24.167 54.5 34.5s51.167 15.5 72.5 15.5h364v-1075h-197v935h-196v-935c-85.333 38 -151 101 -197 189v742h-184v-931h-196z" />
    <glyph glyph-name="iacute" unicode="&#xed;" horiz-adv-x="716" 
d="M485 691v384h197v-1075h-197v538h-184v-538h-196v1075h196v-384h184z" />
    <glyph glyph-name="iacute" unicode="&#x43d;" horiz-adv-x="716" 
d="M485 691v384h197v-1075h-197v538h-184v-538h-196v1075h196v-384h184z" />
    <glyph glyph-name="icircumflex" unicode="&#xee;" 
d="M66 252l0.000976562 586.999c0 38.667 10.667 76.334 32 113.001s50.666 66.334 87.999 89.001c36.667 22.667 75 34 115 34h114c40 0 79 -11.667 117 -35c36.667 -24.667 66.334 -55.334 89.001 -92.001c22.667 -38 34 -77 34 -117v-595c0 -42 -11 -81 -33 -117
c-22 -35.333 -52 -64.333 -90 -87c-36.667 -21.333 -75.667 -32 -117 -32h-117c-42 0 -80.333 12 -115 36c-36.667 25.333 -65.334 57.333 -86.001 96c-20.667 38 -31 78 -31 120zM262.001 930.999v-787h197v787h-197z" />
    <glyph glyph-name="icircumflex" unicode="&#x43e;" 
d="M66 252l0.000976562 586.999c0 38.667 10.667 76.334 32 113.001s50.666 66.334 87.999 89.001c36.667 22.667 75 34 115 34h114c40 0 79 -11.667 117 -35c36.667 -24.667 66.334 -55.334 89.001 -92.001c22.667 -38 34 -77 34 -117v-595c0 -42 -11 -81 -33 -117
c-22 -35.333 -52 -64.333 -90 -87c-36.667 -21.333 -75.667 -32 -117 -32h-117c-42 0 -80.333 12 -115 36c-36.667 25.333 -65.334 57.333 -86.001 96c-20.667 38 -31 78 -31 120zM262.001 930.999v-787h197v787h-197z" />
    <glyph glyph-name="idieresis" unicode="&#xef;" horiz-adv-x="675" 
d="M405 1075c38.667 0 77 -11 115 -33c37.333 -23.333 67 -52.333 89 -87c22.667 -38 34 -76.667 34 -116v-839h-197v931h-184v-931h-196v1075h339z" />
    <glyph glyph-name="idieresis" unicode="&#x43f;" horiz-adv-x="675" 
d="M405 1075c38.667 0 77 -11 115 -33c37.333 -23.333 67 -52.333 89 -87c22.667 -38 34 -76.667 34 -116v-839h-197v931h-184v-931h-196v1075h339z" />
    <glyph glyph-name="eth" unicode="&#xf0;" 
d="M262 931v-787h197v787h-197zM655 831l0.000976562 -594.999c0 -40.667 -11 -79 -33 -115c-23.333 -36 -53.333 -65 -90 -87c-38 -22.667 -76.667 -34 -116 -34h-154v-484h-183v1324c0 38.667 10.333 76 31 112c21.333 36.667 49.333 66 84 88
c35.333 23.333 72.666 35 111.999 35h113c39.333 0 77 -12 113 -36c38 -25.333 67.667 -56 89 -92c22.667 -36.667 34 -75.334 34 -116.001z" />
    <glyph glyph-name="eth" unicode="&#x440;" 
d="M262 931v-787h197v787h-197zM655 831l0.000976562 -594.999c0 -40.667 -11 -79 -33 -115c-23.333 -36 -53.333 -65 -90 -87c-38 -22.667 -76.667 -34 -116 -34h-154v-484h-183v1324c0 38.667 10.333 76 31 112c21.333 36.667 49.333 66 84 88
c35.333 23.333 72.666 35 111.999 35h113c39.333 0 77 -12 113 -36c38 -25.333 67.667 -56 89 -92c22.667 -36.667 34 -75.334 34 -116.001z" />
    <glyph glyph-name="ntilde" unicode="&#xf1;" 
d="M655 683l-196.001 -0.00195312v208h-197v-747h197v230h196v-142c0 -39.333 -11.333 -76.666 -34 -111.999c-23.333 -36.667 -53.666 -65.667 -90.999 -87c-37.333 -22 -76.333 -33 -117 -33h-116c-41.333 0 -80 12 -116 36c-36 24.667 -64 56.334 -84 95.001
c-20.667 38 -31 78 -31 120v585c0 39.333 11 77 33 113c22 36.667 51.667 60 89 70c34.667 10.667 73 16 115 16h114c40 0 78.667 -23 116 -69c37.333 -47.333 67 -87 89 -119c22 -34 33 -62.333 33 -85v-79z" />
    <glyph glyph-name="ntilde" unicode="&#x441;" 
d="M655 683l-196.001 -0.00195312v208h-197v-747h197v230h196v-142c0 -39.333 -11.333 -76.666 -34 -111.999c-23.333 -36.667 -53.666 -65.667 -90.999 -87c-37.333 -22 -76.333 -33 -117 -33h-116c-41.333 0 -80 12 -116 36c-36 24.667 -64 56.334 -84 95.001
c-20.667 38 -31 78 -31 120v585c0 39.333 11 77 33 113c22 36.667 51.667 60 89 70c34.667 10.667 73 16 115 16h114c40 0 78.667 -23 116 -69c37.333 -47.333 67 -87 89 -119c22 -34 33 -62.333 33 -85v-79z" />
    <glyph glyph-name="ograve" unicode="&#xf2;" horiz-adv-x="674" 
d="M52 1075l590 -2v-144l-196 2v-931h-197v931h-197v144z" />
    <glyph glyph-name="ograve" unicode="&#x442;" horiz-adv-x="674" 
d="M52 1075l590 -2v-144l-196 2v-931h-197v931h-197v144z" />
    <glyph glyph-name="oacute" unicode="&#xf3;" 
d="M651 1075l4 -1324c0 -40.667 -11.333 -79 -34 -115c-24.667 -37.333 -54.667 -66.333 -90 -87c-37.333 -22 -76 -33 -116 -33h-349v312h196v-181h200v353h-154c-42 0 -81.667 10.667 -119 32c-38.667 21.333 -68.667 50 -90 86c-22 36 -33 74.667 -33 116v841h196v-931
h197v931h192z" />
    <glyph glyph-name="oacute" unicode="&#x443;" 
d="M651 1075l4 -1324c0 -40.667 -11.333 -79 -34 -115c-24.667 -37.333 -54.667 -66.333 -90 -87c-37.333 -22 -76 -33 -116 -33h-349v312h196v-181h200v353h-154c-42 0 -81.667 10.667 -119 32c-38.667 21.333 -68.667 50 -90 86c-22 36 -33 74.667 -33 116v841h196v-931
h197v931h192z" />
    <glyph glyph-name="ocircumflex" unicode="&#xf4;" horiz-adv-x="1086" 
d="M642 932v-788h197v788h-197zM1035 832v-594.997c0 -41.333 -11 -80 -33 -116c-22.667 -35.333 -52.667 -64 -90 -86c-38 -22.667 -76.667 -34 -116 -34h-154v-484h-183v486v138v791h-197v-788h197v-144h-169c-82 13.333 -139.333 44.166 -172 92.499
s-50 91.166 -52 128.499v311v311c7.33301 67.333 33.666 121.333 78.999 162s93 64 143 70h146c16 -0.666992 36.5 -6.33398 61.5 -17.001s43.833 -22 56.5 -34c22 14 42.5 26 61.5 36s43.167 15 72.5 15h113c40 0 77.667 -12 113 -36
c36.667 -23.333 66.334 -53.666 89.001 -90.999c22.667 -38.667 34 -77.334 34 -116.001z" />
    <glyph glyph-name="ocircumflex" unicode="&#x444;" horiz-adv-x="1086" 
d="M642 932v-788h197v788h-197zM1035 832v-594.997c0 -41.333 -11 -80 -33 -116c-22.667 -35.333 -52.667 -64 -90 -86c-38 -22.667 -76.667 -34 -116 -34h-154v-484h-183v486v138v791h-197v-788h197v-144h-169c-82 13.333 -139.333 44.166 -172 92.499
s-50 91.166 -52 128.499v311v311c7.33301 67.333 33.666 121.333 78.999 162s93 64 143 70h146c16 -0.666992 36.5 -6.33398 61.5 -17.001s43.833 -22 56.5 -34c22 14 42.5 26 61.5 36s43.167 15 72.5 15h113c40 0 77.667 -12 113 -36
c36.667 -23.333 66.334 -53.666 89.001 -90.999c22.667 -38.667 34 -77.334 34 -116.001z" />
    <glyph glyph-name="otilde" unicode="&#xf5;" horiz-adv-x="701" 
d="M275 819l96 -123l101 127v252h196v-291l-186 -239l186 -248v-293h-196v252l-101 135l-96 -135v-252h-196v293l184 243l-184 240v295h196v-256z" />
    <glyph glyph-name="otilde" unicode="&#x445;" horiz-adv-x="701" 
d="M275 819l96 -123l101 127v252h196v-291l-186 -239l186 -248v-293h-196v252l-101 135l-96 -135v-252h-196v293l184 243l-184 240v295h196v-256z" />
    <glyph glyph-name="odieresis" unicode="&#xf6;" horiz-adv-x="716" 
d="M682 -90h-178v90h-238c-40 0 -78.333 11 -115 33c-36.667 20.667 -66 49.667 -88 87c-22.667 35.333 -34 74 -34 116v839h196v-931h184v931h195v-936h78v-229z" />
    <glyph glyph-name="odieresis" unicode="&#x446;" horiz-adv-x="716" 
d="M682 -90h-178v90h-238c-40 0 -78.333 11 -115 33c-36.667 20.667 -66 49.667 -88 87c-22.667 35.333 -34 74 -34 116v839h196v-931h184v931h195v-936h78v-229z" />
    <glyph glyph-name="divide" unicode="&#xf7;" 
d="M655 0h-200.002v254h-156c-29.333 0 -57.166 8.5 -83.499 25.5s-50.166 36.5 -71.499 58.5c-52 52.667 -78 120 -78 202l-1 496h199v-644h191v644h200v-1036z" />
    <glyph glyph-name="divide" unicode="&#x447;" 
d="M655 0h-200.002v254h-156c-29.333 0 -57.166 8.5 -83.499 25.5s-50.166 36.5 -71.499 58.5c-52 52.667 -78 120 -78 202l-1 496h199v-644h191v644h200v-1036z" />
    <glyph glyph-name="oslash" unicode="&#xf8;" horiz-adv-x="1101" 
d="M1049 844l0.000976562 -608c0 -41.333 -11.333 -80.333 -34 -117c-22.667 -36 -53 -65 -91 -87c-38 -21.333 -77 -32 -117 -32h-512c-42.667 0 -81.334 12 -116.001 36c-35.333 24 -63 55.667 -83 95c-20 38.667 -30 79 -30 121v823h196v-931h197v931
c62 -17.333 110.333 -49 145 -95c34 -45.333 51 -91.333 51 -138v-698h197v931c66 -15.333 115.333 -43 148 -83c32.667 -42 49 -91.333 49 -148z" />
    <glyph glyph-name="oslash" unicode="&#x448;" horiz-adv-x="1101" 
d="M1049 844l0.000976562 -608c0 -41.333 -11.333 -80.333 -34 -117c-22.667 -36 -53 -65 -91 -87c-38 -21.333 -77 -32 -117 -32h-512c-42.667 0 -81.334 12 -116.001 36c-35.333 24 -63 55.667 -83 95c-20 38.667 -30 79 -30 121v823h196v-931h197v931
c62 -17.333 110.333 -49 145 -95c34 -45.333 51 -91.333 51 -138v-698h197v931c66 -15.333 115.333 -43 148 -83c32.667 -42 49 -91.333 49 -148z" />
    <glyph glyph-name="ugrave" unicode="&#xf9;" horiz-adv-x="1165" 
d="M1049 844l-0.999023 -700h62v-234h-149v90h-666c-42 0 -80.667 12 -116 36c-34.667 23.333 -62.334 55 -83.001 95c-20 38.667 -30 79 -30 121v823h196v-931h197v931c62 -17.333 110.333 -49 145 -95c34 -45.333 51 -91.333 51 -138v-698h197v931
c66 -15.333 115.333 -43 148 -83c32.667 -42 49 -91.333 49 -148z" />
    <glyph glyph-name="ugrave" unicode="&#x449;" horiz-adv-x="1165" 
d="M1049 844l-0.999023 -700h62v-234h-149v90h-666c-42 0 -80.667 12 -116 36c-34.667 23.333 -62.334 55 -83.001 95c-20 38.667 -30 79 -30 121v823h196v-931h197v931c62 -17.333 110.333 -49 145 -95c34 -45.333 51 -91.333 51 -138v-698h197v931
c66 -15.333 115.333 -43 148 -83c32.667 -42 49 -91.333 49 -148z" />
    <glyph glyph-name="uacute" unicode="&#xfa;" horiz-adv-x="766" 
d="M338 144h197v509h-197v-509zM730 244c0 -40.667 -11.333 -79.665 -34 -116.998c-22 -38 -51.667 -68.333 -89 -91c-36 -24 -73.667 -36 -113 -36h-113c-40 0 -77 11.333 -111 34c-38 23.333 -66 53 -84 89c-21.333 39.333 -32 76.666 -32 111.999v712h-88v128h272v-278
h199c50 0 94.667 -24.667 134 -74c39.333 -50.667 59 -98.334 59 -143.001v-336z" />
    <glyph glyph-name="uacute" unicode="&#x44a;" horiz-adv-x="766" 
d="M338 144h197v509h-197v-509zM730 244c0 -40.667 -11.333 -79.665 -34 -116.998c-22 -38 -51.667 -68.333 -89 -91c-36 -24 -73.667 -36 -113 -36h-113c-40 0 -77 11.333 -111 34c-38 23.333 -66 53 -84 89c-21.333 39.333 -32 76.666 -32 111.999v712h-88v128h272v-278
h199c50 0 94.667 -24.667 134 -74c39.333 -50.667 59 -98.334 59 -143.001v-336z" />
    <glyph glyph-name="ucircumflex" unicode="&#xfb;" horiz-adv-x="892" 
d="M249 144h197v509h-197v-509zM642 244c0 -39.333 -11.334 -78.333 -34.001 -117c-22 -38 -51.667 -68.333 -89 -91c-36 -24 -73.667 -36 -113 -36h-113c-39.333 -0 -76.666 11.333 -111.999 34c-40.667 25.333 -68.667 55 -84 89c-20.667 38 -31 75.333 -31 112v840h183
v-278h199c50 0 94.667 -24.667 134 -74c40 -50 60 -97.667 60 -143v-336zM681.999 0v1075h168v-1075h-168z" />
    <glyph glyph-name="ucircumflex" unicode="&#x44b;" horiz-adv-x="892" 
d="M249 144h197v509h-197v-509zM642 244c0 -39.333 -11.334 -78.333 -34.001 -117c-22 -38 -51.667 -68.333 -89 -91c-36 -24 -73.667 -36 -113 -36h-113c-39.333 -0 -76.666 11.333 -111.999 34c-40.667 25.333 -68.667 55 -84 89c-20.667 38 -31 75.333 -31 112v840h183
v-278h199c50 0 94.667 -24.667 134 -74c40 -50 60 -97.667 60 -143v-336zM681.999 0v1075h168v-1075h-168z" />
    <glyph glyph-name="udieresis" unicode="&#xfc;" horiz-adv-x="674" 
d="M258 641v-497h188v492zM642 544l-0.00292969 -301c0 -64 -23.333 -120.333 -70 -169c-47.333 -49.333 -102.666 -74 -165.999 -74h-106c-40 0 -78 11 -114 33c-37.333 20 -66.666 49.333 -87.999 88c-21.333 36.667 -32 74.667 -32 114v838l192 2v-295h141
c36 0 73 -10.667 111 -32c36.667 -21.333 67.334 -50 92.001 -86c26.667 -40 40 -79.333 40 -118z" />
    <glyph glyph-name="udieresis" unicode="&#x44c;" horiz-adv-x="674" 
d="M258 641v-497h188v492zM642 544l-0.00292969 -301c0 -64 -23.333 -120.333 -70 -169c-47.333 -49.333 -102.666 -74 -165.999 -74h-106c-40 0 -78 11 -114 33c-37.333 20 -66.666 49.333 -87.999 88c-21.333 36.667 -32 74.667 -32 114v838l192 2v-295h141
c36 0 73 -10.667 111 -32c36.667 -21.333 67.334 -50 92.001 -86c26.667 -40 40 -79.333 40 -118z" />
    <glyph glyph-name="yacute" unicode="&#xfd;" 
d="M655 837l-0.000976562 -601.999c0 -66 -25 -121.333 -75 -166c-50 -46 -105 -69 -165 -69h-349v214h197v-70h196v318h-196v145h196v324h-196v-64h-197v208h349c38 0 75.667 -11 113 -33c38.667 -22.667 69.334 -51.334 92.001 -86.001c23.333 -36 35 -75.667 35 -119z
" />
    <glyph glyph-name="yacute" unicode="&#x44d;" 
d="M655 837l-0.000976562 -601.999c0 -66 -25 -121.333 -75 -166c-50 -46 -105 -69 -165 -69h-349v214h197v-70h196v318h-196v145h196v324h-196v-64h-197v208h349c38 0 75.667 -11 113 -33c38.667 -22.667 69.334 -51.334 92.001 -86.001c23.333 -36 35 -75.667 35 -119z
" />
    <glyph glyph-name="thorn" unicode="&#xfe;" horiz-adv-x="957" 
d="M323 252l-0.000976562 319l-61 1v-572h-196v1075h196v-371h61v135c0 37.333 10.667 75 32 113c20.667 35.333 50 65 88 89c38 22.667 76.333 34 115 34h114c39.333 0 78.333 -11.667 117 -35c36.667 -25.333 66.334 -56 89.001 -92c22.667 -38 34 -77 34 -117v-595
c0 -42 -11 -81 -33 -117c-23.333 -36.667 -53.333 -65.667 -90 -87c-38 -21.333 -77 -32 -117 -32h-117c-42 0 -80.333 12 -115 36c-35.333 23.333 -64 55.333 -86 96c-20.667 38.667 -31 78.667 -31 120zM518.999 931v-787h197v787h-197z" />
    <glyph glyph-name="thorn" unicode="&#x44e;" horiz-adv-x="957" 
d="M323 252l-0.000976562 319l-61 1v-572h-196v1075h196v-371h61v135c0 37.333 10.667 75 32 113c20.667 35.333 50 65 88 89c38 22.667 76.333 34 115 34h114c39.333 0 78.333 -11.667 117 -35c36.667 -25.333 66.334 -56 89.001 -92c22.667 -38 34 -77 34 -117v-595
c0 -42 -11 -81 -33 -117c-23.333 -36.667 -53.333 -65.667 -90 -87c-38 -21.333 -77 -32 -117 -32h-117c-42 0 -80.333 12 -115 36c-35.333 23.333 -64 55.333 -86 96c-20.667 38.667 -31 78.667 -31 120zM518.999 931v-787h197v787h-197z" />
    <glyph glyph-name="ydieresis" unicode="&#xff;" horiz-adv-x="674" 
d="M446 931h-184v-433h184v433zM211 0c-45.333 -46.667 -93.667 -76.667 -145 -90v367l103 151l-103 156v252c0 37.333 11 76 33 116c19.333 36.667 49.333 67 90 91c35.333 21.333 74 32 116 32h337v-1075h-196l4 350l-184 4l-4 -220c0 -53.333 -17 -98 -51 -134z" />
    <glyph glyph-name="ydieresis" unicode="&#x44f;" horiz-adv-x="674" 
d="M446 931h-184v-433h184v433zM211 0c-45.333 -46.667 -93.667 -76.667 -145 -90v367l103 151l-103 156v252c0 37.333 11 76 33 116c19.333 36.667 49.333 67 90 91c35.333 21.333 74 32 116 32h337v-1075h-196l4 350l-184 4l-4 -220c0 -53.333 -17 -98 -51 -134z" />
    <glyph glyph-name="glyph1" horiz-adv-x="0" 
 />
    <glyph glyph-name="glyph2" horiz-adv-x="2048" 
 />
  </font>
</defs>
</svg>
